<?xml version="1.0" encoding="UTF-8" standalone="no"?>
<!DOCTYPE svg PUBLIC "-//W3C//DTD SVG 1.1//EN" "http://www.w3.org/Graphics/SVG/1.1/DTD/svg11.dtd">
<svg version="1.1" xmlns="http://www.w3.org/2000/svg" xmlns:xlink="http://www.w3.org/1999/xlink" preserveAspectRatio="xMidYMid meet" viewBox="0 0 640 640" width="50" height="50"><defs><path d="M70 248.45L563.1 248.45L563.1 431.21L70 431.21L70 248.45Z" id="a1OjDP5cZI"></path><path d="M70 332.93L563.1 332.93L563.1 346.72L70 346.72L70 332.93Z" id="b6RxLCAbzX"></path><path d="M77.93 252.76L165.86 252.76L165.86 426.9L77.93 426.9L77.93 252.76Z" id="c8wfQEX4O"></path><path d="M175.52 252.76L263.45 252.76L263.45 426.9L175.52 426.9L175.52 252.76Z" id="j9cJY0wjBf"></path><path d="M272.59 252.76L360.52 252.76L360.52 426.9L272.59 426.9L272.59 252.76Z" id="b3Zd55Ogi7"></path><path d="M368.97 252.76L456.9 252.76L456.9 426.9L368.97 426.9L368.97 252.76Z" id="bthQASnf7"></path><path d="M466.55 252.76L554.48 252.76L554.48 426.9L466.55 426.9L466.55 252.76Z" id="a8boTAxN07"></path></defs><g><g><g><use xlink:href="#a1OjDP5cZI" opacity="1" fill="#39c09a" fill-opacity="0"></use><g><use xlink:href="#a1OjDP5cZI" opacity="1" fill-opacity="0" stroke="#000000" stroke-width="5" stroke-opacity="1"></use></g></g><g><use xlink:href="#b6RxLCAbzX" opacity="1" fill="#b4b4b4" fill-opacity="0.33"></use><g><use xlink:href="#b6RxLCAbzX" opacity="1" fill-opacity="0" stroke="#000000" stroke-width="5" stroke-opacity="1"></use></g></g><g><use xlink:href="#c8wfQEX4O" opacity="1" fill="#39c09a" fill-opacity="0"></use><g><use xlink:href="#c8wfQEX4O" opacity="1" fill-opacity="0" stroke="#000000" stroke-width="5" stroke-opacity="1"></use></g></g><g><use xlink:href="#j9cJY0wjBf" opacity="1" fill="#39c09a" fill-opacity="0"></use><g><use xlink:href="#j9cJY0wjBf" opacity="1" fill-opacity="0" stroke="#000000" stroke-width="5" stroke-opacity="1"></use></g></g><g><use xlink:href="#b3Zd55Ogi7" opacity="1" fill="#39c09a" fill-opacity="0"></use><g><use xlink:href="#b3Zd55Ogi7" opacity="1" fill-opacity="0" stroke="#000000" stroke-width="5" stroke-opacity="1"></use></g></g><g><use xlink:href="#bthQASnf7" opacity="1" fill="#39c09a" fill-opacity="0"></use><g><use xlink:href="#bthQASnf7" opacity="1" fill-opacity="0" stroke="#000000" stroke-width="5" stroke-opacity="1"></use></g></g><g><use xlink:href="#a8boTAxN07" opacity="1" fill="#39c09a" fill-opacity="0"></use><g><use xlink:href="#a8boTAxN07" opacity="1" fill-opacity="0" stroke="#000000" stroke-width="5" stroke-opacity="1"></use></g></g></g></g></svg>