<svg height='100px' width='100px'  fill="#000000" xmlns:dc="http://purl.org/dc/elements/1.1/" xmlns:cc="http://creativecommons.org/ns#" xmlns:rdf="http://www.w3.org/1999/02/22-rdf-syntax-ns#" xmlns:svg="http://www.w3.org/2000/svg" xmlns="http://www.w3.org/2000/svg" xmlns:sodipodi="http://sodipodi.sourceforge.net/DTD/sodipodi-0.dtd" xmlns:inkscape="http://www.inkscape.org/namespaces/inkscape" version="1.1" x="0px" y="0px" viewBox="0 0 100 100"><g transform="translate(0,-952.36218)"><path style="font-size:medium;font-style:normal;font-variant:normal;font-weight:normal;font-stretch:normal;text-indent:0;text-align:start;text-decoration:none;line-height:normal;letter-spacing:normal;word-spacing:normal;text-transform:none;direction:ltr;block-progression:tb;writing-mode:lr-tb;text-anchor:start;baseline-shift:baseline;opacity:1;color:#000000;fill:#000000;fill-opacity:1;fill-rule:nonzero;stroke:none;stroke-width:4;marker:none;visibility:visible;display:inline;overflow:visible;enable-background:accumulate;font-family:Sans;-inkscape-font-specification:Sans" d="M 32.8125 21 A 2.0002 2.0002 0 0 0 31 23 L 31 37 A 2.0002 2.0002 0 0 0 33 39 L 48 39 L 48 47 L 18 47 A 2.0002 2.0002 0 0 0 17.8125 47 A 2.0002 2.0002 0 0 0 16 49 L 16 61 L 8 61 A 2.0002 2.0002 0 0 0 7.8125 61 A 2.0002 2.0002 0 0 0 6 63 L 6 77 A 2.0002 2.0002 0 0 0 8 79 L 30 79 A 2.0002 2.0002 0 0 0 32 77 L 32 63 A 2.0002 2.0002 0 0 0 30 61 L 20 61 L 20 51 L 48 51 L 48 61 L 39 61 A 2.0002 2.0002 0 0 0 37 63 L 37 77 A 2.0002 2.0002 0 0 0 39 79 L 61 79 A 2.0002 2.0002 0 0 0 63 77 L 63 63 A 2.0002 2.0002 0 0 0 61.1875 61 A 2.0002 2.0002 0 0 0 61 61 L 52 61 L 52 51 L 80 51 L 80 61 L 70 61 A 2.0002 2.0002 0 0 0 68 63 L 68 77 A 2.0002 2.0002 0 0 0 70 79 L 92 79 A 2.0002 2.0002 0 0 0 94 77 L 94 63 A 2.0002 2.0002 0 0 0 92.1875 61 A 2.0002 2.0002 0 0 0 92 61 L 84 61 L 84 49 A 2.0002 2.0002 0 0 0 82 47 L 52 47 L 52 39 L 67 39 A 2.0002 2.0002 0 0 0 69 37 L 69 23 A 2.0002 2.0002 0 0 0 67 21 L 33 21 A 2.0002 2.0002 0 0 0 32.8125 21 z " transform="translate(0,952.36218)"></path></g></svg>