<svg height='100px' width='100px'  fill="#000000" xmlns="http://www.w3.org/2000/svg" viewBox="0 0 48 48" x="0px" y="0px"><title>Artboard 52</title><g><path d="M45.5,14.13l-21-12a1,1,0,0,0-1,0l-21,12A1,1,0,0,0,2,15V33a1,1,0,0,0,.5.87l21,12a1,1,0,0,0,1,0l21-12A1,1,0,0,0,46,33V15A1,1,0,0,0,45.5,14.13ZM24,4.15,43,15,34.6,19.79,16.08,8.68ZM14.09,9.82,32.61,20.93,24,25.85,5,15ZM4,16.72,23,27.58v15.7L4,32.42ZM25,43.28V27.58L44,16.72v15.7Z"></path><path d="M30.45,29.17l-3,2A1,1,0,0,0,28,33a.94.94,0,0,0,.55-.17l3-2a1,1,0,0,0-1.1-1.66Z"></path><path d="M30.45,33.17l-3,2A1,1,0,0,0,28,37a.94.94,0,0,0,.55-.17l3-2a1,1,0,0,0-1.1-1.66Z"></path></g></svg>