<svg height='100px' width='100px'  fill="#000000" xmlns="http://www.w3.org/2000/svg" viewBox="0 0 512 512" x="0px" y="0px"><title>inventory-Check-list-store-product</title><g><path d="M484.25,239.741a24,24,0,0,0-29.871-16.114l-214.6,64.207a8.016,8.016,0,0,0-3.185,1.835l-26.072,24.5a8,8,0,0,0,4.1,13.711l35.243,6.156a8.019,8.019,0,0,0,3.67-.216l174.128-52.1.754,16.475-55.33,16.554,4.586,15.33,61.314-18.346a8,8,0,0,0,5.7-8.029L443.464,277l24.673-7.382a24,24,0,0,0,16.113-29.872Zm-233.49,78.21-17.622-3.078,13.036-12.251L282.686,291.7l4.586,15.328ZM302.6,302.44l-4.586-15.328,128.142-38.341.754,16.476Zm165.7-52.023a7.952,7.952,0,0,1-4.748,3.867l-20.841,6.235-.754-16.475,17.009-5.089a8,8,0,0,1,9.334,11.462Z"></path><path d="M320,352H184V232a8,8,0,0,0-8-8H32a8,8,0,0,0-8,8V488a8,8,0,0,0,8,8H320a8,8,0,0,0,8-8V360A8,8,0,0,0,320,352Zm-88,16h32v32H232ZM88,240h32v32H88Zm-48,0H72v40a8,8,0,0,0,8,8h48a8,8,0,0,0,8-8V240h32V352H40ZM88,368h32v32H88Zm-48,0H72v40a8,8,0,0,0,8,8h48a8,8,0,0,0,8-8V368h32V480H40ZM312,480H184V368h32v40a8,8,0,0,0,8,8h48a8,8,0,0,0,8-8V368h32Z"></path><rect x="280" y="448" width="16" height="16"></rect><rect x="136" y="448" width="16" height="16"></rect><rect x="136" y="320" width="16" height="16"></rect><path d="M152,80a16.019,16.019,0,0,1,16-16h48V80H176a8,8,0,0,0-8,8V208h16V96H376V224h16V88a8,8,0,0,0-8-8H344V64h48a16.019,16.019,0,0,1,16,16V216h16V80a32.036,32.036,0,0,0-32-32H314.246l5.515-22.06A8,8,0,0,0,312,16H248a8,8,0,0,0-7.761,9.94L245.754,48H168a32.036,32.036,0,0,0-32,32V208h16Zm80-16h24a8,8,0,0,0,7.761-9.94L258.246,32h43.508l-5.515,22.06A8,8,0,0,0,304,64h24V80H232Z"></path><path d="M408,408a16.019,16.019,0,0,1-16,16H344v16h48a32.036,32.036,0,0,0,32-32V336H408Z"></path><path d="M392,400V344H376v48H344v16h40A8,8,0,0,0,392,400Z"></path><path d="M248,120a8,8,0,0,0-8-8H208a8,8,0,0,0-8,8v32a8,8,0,0,0,8,8h32a8,8,0,0,0,8-8Zm-16,24H216V128h16Z"></path><path d="M240,184H208a8,8,0,0,0-8,8v32a8,8,0,0,0,8,8h32a8,8,0,0,0,8-8V192A8,8,0,0,0,240,184Zm-8,32H216V200h16Z"></path><rect x="264" y="112" width="16" height="16"></rect><rect x="264" y="144" width="96" height="16"></rect><rect x="296" y="112" width="64" height="16"></rect><rect x="264" y="184" width="16" height="16"></rect><rect x="264" y="216" width="96" height="16"></rect><rect x="296" y="184" width="64" height="16"></rect></g></svg>