<svg height='100px' width='100px'  fill="#000000" xmlns="http://www.w3.org/2000/svg" xmlns:xlink="http://www.w3.org/1999/xlink" version="1.1" x="0px" y="0px" viewBox="0 0 64 64" style="enable-background:new 0 0 64 64;" xml:space="preserve"><path d="M54.70703,2.29297C54.51953,2.10547,54.26514,2,54,2H3C2.44775,2,2,2.44727,2,3v58c0,0.55273,0.44775,1,1,1h58  c0.55225,0,1-0.44727,1-1V10c0-0.26562-0.10547-0.51953-0.29297-0.70703L54.70703,2.29297z M4,60V4h49.58594l5,5H55V7h-2v3  c0,0.55273,0.44775,1,1,1h6v49H4z"></path><path d="M51,12h-8c-0.55225,0-1,0.44727-1,1v3H22v-3c0-0.55273-0.44775-1-1-1h-8c-0.55225,0-1,0.44727-1,1v8  c0,0.55273,0.44775,1,1,1h8c0.55225,0,1-0.44727,1-1v-3h20v3c0,0.55273,0.44775,1,1,1h3v6c0,1.6543-1.3457,3-3,3h-6v-3  c0-0.55273-0.44775-1-1-1h-8c-0.55225,0-1,0.44727-1,1v3h-6c-2.75684,0-5,2.24316-5,5v5h-3c-0.55225,0-1,0.44727-1,1v8  c0,0.55273,0.44775,1,1,1h8c0.55225,0,1-0.44727,1-1v-3h20v3c0,0.55273,0.44775,1,1,1h8c0.55225,0,1-0.44727,1-1v-8  c0-0.55273-0.44775-1-1-1h-8c-0.55225,0-1,0.44727-1,1v3H22v-3c0-0.55273-0.44775-1-1-1h-3v-5c0-1.6543,1.3457-3,3-3h6v3  c0,0.55273,0.44775,1,1,1h8c0.55225,0,1-0.44727,1-1v-3h6c2.75684,0,5-2.24316,5-5v-6h3c0.55225,0,1-0.44727,1-1v-8  C52,12.44727,51.55225,12,51,12z M20,20h-6v-6h6V20z M44,43h6v6h-6V43z M20,49h-6v-6h6V49z M35,35h-6v-6h6V35z M50,20h-6v-6h6V20z"></path></svg>