<svg height='100px' width='100px'  fill="#000000" xmlns:x="http://ns.adobe.com/Extensibility/1.0/" xmlns:i="http://ns.adobe.com/AdobeIllustrator/10.0/" xmlns:graph="http://ns.adobe.com/Graphs/1.0/" xmlns="http://www.w3.org/2000/svg" xmlns:xlink="http://www.w3.org/1999/xlink" version="1.1" x="0px" y="0px" viewBox="0 0 64 64" enable-background="new 0 0 64 64" xml:space="preserve"><metadata><sfw xmlns="http://ns.adobe.com/SaveForWeb/1.0/"><slices></slices><sliceSourceBounds height="16384" width="16389" x="-8165" y="-8160" bottomLeftOrigin="true"></sliceSourceBounds></sfw></metadata><g><g><path d="M32,14c0-4.411-3.589-8-8-8s-8,3.589-8,8v28.013c-1.295,1.726-2,3.823-2,5.987c0,5.514,4.486,10,10,10s10-4.486,10-10    c0-2.163-0.705-4.261-2-5.987V14z M24,54c-3.309,0-6-2.691-6-6c0-1.453,0.533-2.858,1.501-3.957    C19.823,43.678,20,43.207,20,42.721V14c0-2.206,1.794-4,4-4s4,1.794,4,4v28.721c0,0.486,0.177,0.956,0.499,1.321    C29.467,45.142,30,46.548,30,48C30,51.309,27.309,54,24,54z"></path><path d="M26,44.557V40c0-1.104-0.896-2-2-2s-2,0.896-2,2v4.557c-1.19,0.693-2,1.969-2,3.443c0,2.206,1.794,4,4,4s4-1.794,4-4    C28,46.525,27.19,45.25,26,44.557z"></path><path d="M48,23.196h-2.535L46.732,21c0.552-0.957,0.225-2.18-0.732-2.732c-0.96-0.555-2.18-0.225-2.732,0.732L42,21.195L40.732,19    c-0.554-0.957-1.774-1.287-2.732-0.732c-0.957,0.552-1.284,1.775-0.732,2.732l1.268,2.196H36c-1.104,0-2,0.896-2,2s0.896,2,2,2    h2.535l-1.268,2.196c-0.552,0.957-0.225,2.18,0.732,2.732c0.315,0.182,0.659,0.269,0.998,0.269c0.691,0,1.363-0.359,1.734-1    L42,29.197l1.268,2.195c0.371,0.642,1.043,1,1.734,1c0.339,0,0.683-0.086,0.998-0.269c0.957-0.552,1.284-1.775,0.732-2.732    l-1.268-2.196H48c1.104,0,2-0.896,2-2S49.104,23.196,48,23.196z"></path></g></g></svg>