<svg height='100px' width='100px'  fill="#000000" xmlns:x="http://ns.adobe.com/Extensibility/1.0/" xmlns:i="http://ns.adobe.com/AdobeIllustrator/10.0/" xmlns:graph="http://ns.adobe.com/Graphs/1.0/" xmlns="http://www.w3.org/2000/svg" xmlns:xlink="http://www.w3.org/1999/xlink" version="1.1" x="0px" y="0px" viewBox="0 0 100 100" style="enable-background:new 0 0 100 100;" xml:space="preserve"><g><g i:extraneous="self"><g><path d="M5273.1,2400.1v-2c0-2.8-5-4-9.7-4s-9.7,1.3-9.7,4v2c0,1.8,0.7,3.6,2,4.9l5,4.9c0.3,0.3,0.4,0.6,0.4,1v6.4     c0,0.4,0.2,0.7,0.6,0.8l2.9,0.9c0.5,0.1,1-0.2,1-0.8v-7.2c0-0.4,0.2-0.7,0.4-1l5.1-5C5272.4,2403.7,5273.1,2401.9,5273.1,2400.1z      M5263.4,2400c-4.8,0-7.4-1.3-7.5-1.8v0c0.1-0.5,2.7-1.8,7.5-1.8c4.8,0,7.3,1.3,7.5,1.8C5270.7,2398.7,5268.2,2400,5263.4,2400z"></path><path d="M5268.4,2410.3c-0.6,0-1,0.4-1,1c0,0.6,0.4,1,1,1h4.3c0.6,0,1-0.4,1-1c0-0.6-0.4-1-1-1H5268.4z"></path><path d="M5272.7,2413.7h-4.3c-0.6,0-1,0.4-1,1c0,0.6,0.4,1,1,1h4.3c0.6,0,1-0.4,1-1C5273.7,2414.1,5273.3,2413.7,5272.7,2413.7z"></path><path d="M5272.7,2417h-4.3c-0.6,0-1,0.4-1,1c0,0.6,0.4,1,1,1h4.3c0.6,0,1-0.4,1-1C5273.7,2417.5,5273.3,2417,5272.7,2417z"></path></g><g><path d="M42.6,76.9h-3.5v-2.6h-5.7v14.9h14.9V74.3h-5.7V76.9z M43.2,84h-4.7V82h4.7V84z"></path><path d="M42.6,58.5h-3.5v-2.6h-5.7v14.9h14.9V55.9h-5.7V58.5z M43.2,65.7h-4.7v-2.1h4.7V65.7z"></path><path d="M51.7,55.9v14.9h14.9V55.9h-5.7v2.6h-3.5v-2.6H51.7z M61.5,63.6v2.1h-4.7v-2.1H61.5z"></path><path d="M60.9,76.9h-3.5v-2.6h-5.7v14.9h14.9V74.3h-5.7V76.9z M61.5,84h-4.7V82h4.7V84z"></path><polygon points="50,10.9 2.5,33.7 2.5,89.1 26.8,89.1 26.8,50 72.8,50 72.8,89.1 97.5,89.1 97.5,33.7    "></polygon></g></g></g></svg>