<svg xmlns="http://www.w3.org/2000/svg" xmlns:xlink="http://www.w3.org/1999/xlink" xml:space="preserve" version="1.1" style="shape-rendering:geometricPrecision;text-rendering:geometricPrecision;image-rendering:optimizeQuality;" viewBox="0 0 846.66 1058.325" x="0px" y="0px" fill-rule="evenodd" clip-rule="evenodd"><defs><style type="text/css">
   
    .fil0 {fill:black;fill-rule:nonzero}
   
  </style></defs><g><path class="fil0" d="M540.06 157.74l0 -67.57 -233.46 0 0 67.57c77.82,0 155.64,0 233.46,0zm-220.81 500.01l0 -468.84 -43.82 0 0 -129.91c98.59,0 197.21,0 295.8,0l0 129.91 -43.82 0 0 468.84 43.82 0 0 129.91 -295.8 0 0 -129.91 43.82 0zm220.81 31.18c-77.82,0 -155.64,0 -233.46,0l0 67.56 233.46 0 0 -67.56zm-43.83 -500.02l-145.8 0 0 468.84 145.8 0 0 -468.84z"/></g><text x="0" y="861.66" fill="#000000" font-size="5px" font-weight="bold" font-family="'Helvetica Neue', Helvetica, Arial-Unicode, Arial, Sans-serif">Created by Susannanova</text><text x="0" y="866.66" fill="#000000" font-size="5px" font-weight="bold" font-family="'Helvetica Neue', Helvetica, Arial-Unicode, Arial, Sans-serif">from the Noun Project</text></svg>