<svg height='100px' width='100px'  fill="#000000" xmlns="http://www.w3.org/2000/svg" xmlns:xlink="http://www.w3.org/1999/xlink" version="1.1" x="0px" y="0px" viewBox="0 0 64 64" style="enable-background:new 0 0 64 64;" xml:space="preserve"><path d="M8,19h8c0.55225,0,1-0.44775,1-1v-3h-2v2H9v-6h3V9H8c-0.55225,0-1,0.44775-1,1v8C7,18.55225,7.44775,19,8,19z"></path><path d="M12,13.58594l-1.29297-1.29297l-1.41406,1.41406l2,2C11.48828,15.90234,11.74414,16,12,16s0.51172-0.09766,0.70703-0.29297  l6-6l-1.41406-1.41406L12,13.58594z"></path><path d="M15,30H9v-6h3v-2H8c-0.55225,0-1,0.44775-1,1v8c0,0.55225,0.44775,1,1,1h8c0.55225,0,1-0.44775,1-1v-3h-2V30z"></path><path d="M12,26.58594l-1.29297-1.29297l-1.41406,1.41406l2,2C11.48828,28.90234,11.74414,29,12,29s0.51172-0.09766,0.70703-0.29297  l6-6l-1.41406-1.41406L12,26.58594z"></path><path d="M16,35H8c-0.55225,0-1,0.44775-1,1v8c0,0.55225,0.44775,1,1,1h8c0.55225,0,1-0.44775,1-1v-8C17,35.44775,16.55225,35,16,35z   M15,43H9v-6h6V43z"></path><path d="M16,48H8c-0.55225,0-1,0.44775-1,1v8c0,0.55225,0.44775,1,1,1h8c0.55225,0,1-0.44775,1-1v-8C17,48.44775,16.55225,48,16,48z   M15,56H9v-6h6V56z"></path><path d="M57.70703,5.29297c-0.39062-0.39062-1.02344-0.39062-1.41406,0L50,11.58594l-9.29297-9.29297  C40.51953,2.10547,40.26514,2,40,2H3C2.44775,2,2,2.44775,2,3v58c0,0.55225,0.44775,1,1,1h47c0.55225,0,1-0.44775,1-1V21.41406  l10.70703-10.70703c0.39062-0.39062,0.39062-1.02344,0-1.41406L57.70703,5.29297z M49,60H4V4h35.58594l8,8H41V7h-2v6  c0,0.55225,0.44775,1,1,1h7.58594L24.29297,37.29297c-0.10986,0.10986-0.19238,0.24365-0.2417,0.39062l-2,6  c-0.11963,0.35938-0.02637,0.75586,0.2417,1.02344C22.4834,44.89795,22.73926,45,23,45c0.10596,0,0.2124-0.0166,0.31641-0.05127l6-2  c0.14697-0.04932,0.28076-0.13184,0.39062-0.2417L49,23.41406V60z M25.43701,39.85107l1.71191,1.71191l-2.56787,0.85596  L25.43701,39.85107z M29,40.58594L26.41406,38L57,7.41406L59.58594,10L29,40.58594z"></path><rect x="45" y="56" width="2" height="2"></rect><rect x="41" y="56" width="2" height="2"></rect><rect x="37" y="56" width="2" height="2"></rect></svg>