<svg height='100px' width='100px'  fill="#000000" xmlns="http://www.w3.org/2000/svg" xmlns:xlink="http://www.w3.org/1999/xlink" version="1.1" x="0px" y="0px" viewBox="0 0 64 64" enable-background="new 0 0 64 64" xml:space="preserve"><g><g><g><path d="M63,53H1c-0.553,0-1-0.447-1-1s0.447-1,1-1h62c0.553,0,1,0.447,1,1S63.553,53,63,53z"></path></g><g><g><path d="M24,53c-0.553,0-1-0.447-1-1V39c0-0.553,0.447-1,1-1s1,0.447,1,1v13C25,52.553,24.553,53,24,53z"></path></g><g><path d="M27,53c-0.553,0-1-0.447-1-1V39c0-0.553,0.447-1,1-1s1,0.447,1,1v13C28,52.553,27.553,53,27,53z"></path></g><g><path d="M37,53c-0.553,0-1-0.447-1-1V39c0-0.553,0.447-1,1-1s1,0.447,1,1v13C38,52.553,37.553,53,37,53z"></path></g><g><path d="M40,53c-0.553,0-1-0.447-1-1V39c0-0.553,0.447-1,1-1s1,0.447,1,1v13C41,52.553,40.553,53,40,53z"></path></g></g><g><path d="M23.001,40c-0.323,0-0.641-0.156-0.833-0.445l-2-3c-0.307-0.46-0.183-1.08,0.277-1.387     c0.46-0.306,1.08-0.183,1.387,0.277l2,3c0.307,0.46,0.183,1.08-0.277,1.387C23.384,39.945,23.191,40,23.001,40z"></path></g><g><path d="M41,40H23c-0.553,0-1-0.447-1-1s0.447-1,1-1h18c0.553,0,1,0.447,1,1S41.553,40,41,40z"></path></g><g><path d="M40.999,40c-0.19,0-0.383-0.055-0.554-0.168c-0.46-0.307-0.584-0.927-0.277-1.387l2-3     c0.306-0.46,0.925-0.583,1.387-0.277c0.46,0.307,0.584,0.927,0.277,1.387l-2,3C41.64,39.844,41.322,40,40.999,40z"></path></g><g><path d="M43,37H21c-0.553,0-1-0.447-1-1s0.447-1,1-1h22c0.553,0,1,0.447,1,1S43.553,37,43,37z"></path></g><g><path d="M10.999,50c-0.467,0-0.885-0.328-0.979-0.804l-1-5c-0.108-0.542,0.243-1.068,0.784-1.177     c0.547-0.114,1.068,0.243,1.177,0.784l1,5c0.108,0.542-0.243,1.068-0.784,1.177C11.13,49.994,11.063,50,10.999,50z"></path></g><g><path d="M18,50h-7c-0.553,0-1-0.447-1-1s0.447-1,1-1h7c0.553,0,1,0.447,1,1S18.553,50,18,50z"></path></g><g><path d="M18.001,50c-0.065,0-0.131-0.006-0.197-0.02c-0.541-0.108-0.893-0.635-0.784-1.177l1-5     c0.108-0.543,0.635-0.897,1.177-0.784c0.541,0.108,0.893,0.635,0.784,1.177l-1,5C18.886,49.672,18.468,50,18.001,50z"></path></g><g><path d="M19,45h-9c-0.553,0-1-0.447-1-1s0.447-1,1-1h9c0.553,0,1,0.447,1,1S19.553,45,19,45z"></path></g><g><path d="M12,53c-0.553,0-1-0.447-1-1v-3c0-0.553,0.447-1,1-1s1,0.447,1,1v3C13,52.553,12.553,53,12,53z"></path></g><g><path d="M17,53c-0.553,0-1-0.447-1-1v-3c0-0.553,0.447-1,1-1s1,0.447,1,1v3C18,52.553,17.553,53,17,53z"></path></g><g><path d="M45,53c-0.104,0-0.211-0.017-0.316-0.052c-0.523-0.174-0.807-0.74-0.632-1.265l1-3c0.175-0.523,0.737-0.807,1.265-0.632     c0.523,0.174,0.807,0.74,0.632,1.265l-1,3C45.809,52.735,45.419,53,45,53z"></path></g><g><path d="M50,53c-0.419,0-0.809-0.265-0.948-0.684l-1-3c-0.175-0.524,0.108-1.091,0.632-1.265     c0.527-0.175,1.091,0.108,1.265,0.632l1,3c0.175,0.524-0.108,1.091-0.632,1.265C50.211,52.983,50.104,53,50,53z"></path></g><g><path d="M51,53c-0.104,0-0.211-0.017-0.316-0.052c-0.523-0.174-0.807-0.74-0.632-1.265l1-3c0.174-0.523,0.737-0.807,1.265-0.632     c0.523,0.174,0.807,0.74,0.632,1.265l-1,3C51.809,52.735,51.419,53,51,53z"></path></g><g><path d="M55,50h-9c-0.553,0-1-0.447-1-1s0.447-1,1-1h9c0.553,0,1,0.447,1,1S55.553,50,55,50z"></path></g><g><path d="M56,53c-0.419,0-0.809-0.265-0.948-0.684l-1-3c-0.175-0.524,0.108-1.091,0.632-1.265c0.527-0.175,1.09,0.108,1.265,0.632     l1,3c0.175,0.524-0.108,1.091-0.632,1.265C56.211,52.983,56.104,53,56,53z"></path></g><g><path d="M48,50c-0.104,0-0.211-0.017-0.316-0.052c-0.523-0.174-0.807-0.74-0.632-1.265l1-3c0.175-0.523,0.736-0.809,1.265-0.632     c0.523,0.174,0.807,0.74,0.632,1.265l-1,3C48.809,49.735,48.419,50,48,50z"></path></g><g><path d="M52,47h-3c-0.553,0-1-0.447-1-1s0.447-1,1-1h3c0.553,0,1,0.447,1,1S52.553,47,52,47z"></path></g><g><path d="M53,50c-0.419,0-0.809-0.265-0.948-0.684l-1-3c-0.175-0.524,0.108-1.091,0.632-1.265c0.528-0.177,1.09,0.108,1.265,0.632     l1,3c0.175,0.524-0.108,1.091-0.632,1.265C53.211,49.983,53.104,50,53,50z"></path></g><g><path d="M3.001,53c-0.092,0-0.184-0.013-0.275-0.038c-0.531-0.152-0.839-0.706-0.688-1.236l6-21     c0.152-0.532,0.711-0.832,1.236-0.688c0.531,0.152,0.839,0.706,0.688,1.236l-6,21C3.836,52.714,3.436,53,3.001,53z"></path></g><g><path d="M17,32H9c-0.553,0-1-0.447-1-1s0.447-1,1-1h8c0.553,0,1,0.447,1,1S17.553,32,17,32z"></path></g><g><path d="M15,32c-0.095,0-0.191-0.014-0.287-0.042c-0.529-0.159-0.829-0.717-0.671-1.245l3-10     c0.158-0.529,0.713-0.828,1.245-0.671c0.529,0.159,0.829,0.717,0.671,1.245l-3,10C15.828,31.721,15.431,32,15,32z"></path></g><g><path d="M27,22h-9c-0.553,0-1-0.447-1-1s0.447-1,1-1h9c0.553,0,1,0.447,1,1S27.553,22,27,22z"></path></g><g><path d="M22,22c-0.273,0-0.546-0.111-0.743-0.331c-0.369-0.41-0.336-1.043,0.074-1.412l10-9c0.41-0.369,1.043-0.337,1.412,0.074     c0.369,0.41,0.336,1.043-0.074,1.412l-10,9C22.478,21.915,22.238,22,22,22z"></path></g><g><path d="M60.999,53c-0.435,0-0.835-0.286-0.961-0.726l-6-21c-0.151-0.53,0.156-1.084,0.688-1.236     c0.526-0.144,1.084,0.155,1.236,0.688l6,21c0.151,0.53-0.156,1.084-0.688,1.236C61.183,52.987,61.091,53,60.999,53z"></path></g><g><path d="M55,32h-9c-0.553,0-1-0.447-1-1s0.447-1,1-1h9c0.553,0,1,0.447,1,1S55.553,32,55,32z"></path></g><g><path d="M49,32c-0.431,0-0.828-0.279-0.958-0.713l-3-10c-0.158-0.528,0.142-1.086,0.671-1.245     c0.529-0.157,1.087,0.142,1.245,0.671l3,10c0.158,0.528-0.142,1.086-0.671,1.245C49.191,31.986,49.095,32,49,32z"></path></g><g><path d="M46,22h-9c-0.553,0-1-0.447-1-1s0.447-1,1-1h9c0.553,0,1,0.447,1,1S46.553,22,46,22z"></path></g><g><path d="M42,22c-0.238,0-0.478-0.085-0.669-0.257l-10-9c-0.41-0.369-0.443-1.002-0.074-1.412c0.37-0.41,1.001-0.442,1.412-0.074     l10,9c0.41,0.369,0.443,1.002,0.074,1.412C42.546,21.889,42.273,22,42,22z"></path></g></g></g></svg>