<svg height='100px' width='100px'  fill="#000000" xmlns="http://www.w3.org/2000/svg" data-name="Layer 1" viewBox="0 0 100 100" x="0px" y="0px"><title>C Clamp</title><path d="M75.11,63l-6.24,6.23-9.51-9.51L66,53.05a10.75,10.75,0,0,0,0-15.19L50.78,22.62a10.75,10.75,0,0,0-15.19,0L22.36,35.85l9.58,9.58,4-4,.8.79a1,1,0,0,1,0,1.37l-.64.64,2.53,2.53,5.17-5.17L41.31,39l-.63.63a1,1,0,0,1-1.37,0l-.8-.8,4.68-4.68L54.46,45.45l-4.68,4.68L48.63,49a1,1,0,0,1,0-1.37l.63-.63-2.53-2.54-5.17,5.17,2.53,2.54.64-.64a1,1,0,0,1,1.37,0l1.15,1.15-4,4,9.58,9.58,4-4,9.51,9.51L60.1,78l2.54,2.53,6.23-6.23,2,1.95a1.79,1.79,0,0,0,2.53-2.53l-2-2,6.24-6.23ZM52.79,61.22,48.28,56.7,57,48a3.57,3.57,0,0,0,0-5.06L45.72,31.65a3.58,3.58,0,0,0-5.06,0l-8.72,8.72-4.51-4.52,10.7-10.7a7.16,7.16,0,0,1,10.12,0L63.49,40.39a7.18,7.18,0,0,1,0,10.13Zm7.88-20.48a6.68,6.68,0,0,1,0,9.43L60,49.53a5.78,5.78,0,0,0,0-8.16l-14-14,.63-.64Z"></path></svg>