<svg height='100px' width='100px'  fill="#000000" xmlns="http://www.w3.org/2000/svg" xmlns:xlink="http://www.w3.org/1999/xlink" viewBox="0 0 24 24" version="1.1" x="0px" y="0px"><title>icon/split-up</title><desc>Created with Sketch.</desc><g stroke="none" stroke-width="1" fill="none" fill-rule="evenodd"><path d="M19,4.70710678 L14.8535534,8.85355339 C14.6582912,9.04881554 14.3417088,9.04881554 14.1464466,8.85355339 C13.9511845,8.65829124 13.9511845,8.34170876 14.1464466,8.14644661 L18.2928932,4 L14.5,4 C14.2238576,4 14,3.77614237 14,3.5 C14,3.22385763 14.2238576,3 14.5,3 L19.5,3 C19.7761424,3 20,3.22385763 20,3.5 L20,8.5 C20,8.77614237 19.7761424,9 19.5,9 C19.2238576,9 19,8.77614237 19,8.5 L19,4.70710678 Z M4,4.70710678 L4,8.5 C4,8.77614237 3.77614237,9 3.5,9 C3.22385763,9 3,8.77614237 3,8.5 L3,3.5 C3,3.22385763 3.22385763,3 3.5,3 L8.5,3 C8.77614237,3 9,3.22385763 9,3.5 C9,3.77614237 8.77614237,4 8.5,4 L4.70710678,4 L11.8535534,11.1464466 C11.9473216,11.2402148 12,11.3673918 12,11.5 L12,20.5 C12,20.7761424 11.7761424,21 11.5,21 C11.2238576,21 11,20.7761424 11,20.5 L11,11.7071068 L4,4.70710678 Z" fill="#000000" fill-rule="nonzero"></path></g></svg>