<svg height='100px' width='100px'  fill="#000000" xmlns="http://www.w3.org/2000/svg" xmlns:xlink="http://www.w3.org/1999/xlink" version="1.1" x="0px" y="0px" viewBox="0 0 100 100" style="enable-background:new 0 0 100 100;" xml:space="preserve"><path d="M48.136,12.458h-15.57c-0.359,0-0.649,0.317-0.649,0.708s0.29,0.708,0.649,0.708h15.57c0.359,0,0.649-0.317,0.649-0.708  S48.494,12.458,48.136,12.458z"></path><path d="M85.438,47.162c-0.007-1.663-0.364-40.725-16.543-40.725L37.702,6.439C37.029,6.48,21.213,7.891,21.213,47.167  c0,0.01,0.005,0.018,0.005,0.028c0,0.01-0.004,0.019-0.004,0.029l1.14,23.191c0.058,1.172,0.006,2.336-0.155,3.46  c-0.728,5.079-5.009,14.301-10.849,17.687c-0.395,0.229-0.596,0.722-0.488,1.195c0.108,0.474,0.497,0.806,0.944,0.806h31.139  c3.515,0,6.394-1.969,8.38-5.665h17.569c2.893,0,5.475-1.225,7.677-3.64C85.455,74.513,85.443,48.274,85.438,47.162z M49.918,86.334  c-1.653,3.386-3.998,5.103-6.972,5.103H14.973c5.024-4.535,8.458-12.407,9.15-17.233c0.182-1.271,0.241-2.583,0.176-3.902  L23.16,47.143c0.006-37.039,14.51-38.57,14.596-38.58H62.94c-1.452,1.15-2.704,2.714-3.785,4.554  c-0.025-0.367-0.298-0.659-0.64-0.659h-5.189c-0.359,0-0.649,0.317-0.649,0.708s0.291,0.708,0.649,0.708h5.189  c0.086,0,0.167-0.02,0.242-0.053c-6.21,11.408-6.399,32.138-6.404,33.34c0,0.02,0.009,0.038,0.01,0.058  c-0.001,0.021-0.011,0.039-0.011,0.061v0.002l0.001,28.192C52.351,75.537,52.197,81.666,49.918,86.334z M52.31,85.771  c1.845-4.77,1.984-10.004,1.99-10.271v-7.913c1.467,7.37,4.044,14.689,8.548,18.183H52.31z M75.191,82.76  c-1.847,2.026-3.907,3.011-6.296,3.011h-0.012C54.539,85.749,54.302,48.85,54.3,47.278c0-0.02-0.009-0.036-0.01-0.055  c0.001-0.018,0.009-0.033,0.01-0.051c0.002-0.386,0.341-38.609,14.596-38.609c14.255,0,14.595,38.223,14.596,38.608  C83.493,47.436,83.505,73.641,75.191,82.76z"></path><path d="M68.895,29.459c-3.793,0-5.839,9.124-5.839,17.708c0,8.585,2.046,17.709,5.839,17.709c3.792,0,5.839-9.124,5.839-17.709  C74.734,38.583,72.687,29.459,68.895,29.459z M68.895,63.458c-2.148,0-4.541-6.69-4.541-16.291c0-2.215,0.132-4.266,0.354-6.125  h2.545c0.359,0,0.649-0.317,0.649-0.708s-0.291-0.708-0.649-0.708h-2.352c0.094-0.607,0.194-1.196,0.307-1.75h4.754  c0.359,0,0.649-0.317,0.649-0.708s-0.291-0.708-0.649-0.708h-4.43c0.893-3.501,2.164-5.582,3.361-5.582  c2.147,0,4.54,6.69,4.54,16.291S71.043,63.458,68.895,63.458z"></path><path d="M48.136,86.125h-5.19c-0.359,0-0.649,0.317-0.649,0.709s0.29,0.709,0.649,0.709h5.19c0.359,0,0.649-0.317,0.649-0.709  S48.494,86.125,48.136,86.125z"></path><path d="M37.756,86.125h-15.57c-0.359,0-0.649,0.317-0.649,0.709s0.29,0.709,0.649,0.709h15.57c0.359,0,0.649-0.317,0.649-0.709  S38.114,86.125,37.756,86.125z"></path><path d="M48.136,74.791h-15.57c-0.359,0-0.649,0.317-0.649,0.709s0.29,0.709,0.649,0.709h15.57c0.359,0,0.649-0.317,0.649-0.709  S48.494,74.791,48.136,74.791z"></path><path d="M59.126,58.183c-0.003-0.39-0.293-0.704-0.649-0.704c-0.002,0-0.003,0-0.004,0c-0.359,0.003-0.647,0.322-0.645,0.714  c0.003,0.392,0.103,9.672,3.981,16.955c0.12,0.226,0.338,0.353,0.562,0.353c0.11,0,0.223-0.031,0.326-0.097  c0.309-0.196,0.415-0.63,0.234-0.969C59.23,67.484,59.126,58.274,59.126,58.183z"></path><path d="M68.209,80.738c-2.057-0.313-2.816-1.968-2.85-2.043c-0.153-0.352-0.538-0.503-0.86-0.337  c-0.325,0.165-0.465,0.587-0.313,0.941c0.042,0.099,1.065,2.419,3.844,2.843c0.03,0.004,0.06,0.007,0.09,0.007  c0.318,0,0.597-0.257,0.642-0.611C68.812,81.15,68.564,80.793,68.209,80.738z"></path></svg>