<svg height='100px' width='100px'  fill="#000000" xmlns="http://www.w3.org/2000/svg" data-name="Layer 1" viewBox="0 0 90 90" x="0px" y="0px"><title>Dexter</title><circle cx="11.69" cy="40.57" r="1.4"></circle><circle cx="45.17" cy="60.03" r="1.4" transform="translate(-21.54 25.48) rotate(-25.66)"></circle><circle cx="34.56" cy="46.29" r="1.4"></circle><circle cx="26.75" cy="46.29" r="1.4"></circle><circle cx="22.67" cy="54.9" r="1.4"></circle><circle cx="6" cy="54.9" r="1.4"></circle><circle cx="51.73" cy="34.59" r="1.4" transform="translate(-9.5 23.49) rotate(-23.5)"></circle><circle cx="57.18" cy="46.29" r="1.4" transform="translate(-13.72 26.64) rotate(-23.5)"></circle><circle cx="84" cy="46.29" r="1.4" transform="translate(-11.49 37.33) rotate(-23.5)"></circle><circle cx="51.73" cy="46.29" r="1.4" transform="translate(-14.17 24.47) rotate(-23.5)"></circle><circle cx="65.82" cy="32.02" r="1.4"></circle><circle cx="68.83" cy="36.39" r="1.4"></circle><polygon points="51.73 34.32 51.73 34.86 40.52 34.86 40.52 40.84 11.69 40.84 11.69 40.3 39.98 40.3 39.98 34.32 51.73 34.32"></polygon><polygon points="66.01 32.21 57.38 40.84 46.08 40.84 40.41 46.56 34.56 46.56 34.56 46.02 40.19 46.02 45.86 40.3 57.16 40.3 65.63 31.83 66.01 32.21"></polygon><polygon points="69.1 36.39 69.1 46.4 62.98 52.52 56.91 52.52 56.91 46.29 57.45 46.29 57.45 51.98 62.76 51.98 68.56 46.18 68.56 36.39 69.1 36.39"></polygon><polygon points="84 46.02 84 46.56 74.76 46.56 74.76 52.04 68.77 58.04 51.46 58.04 51.46 46.29 52 46.29 52 57.5 68.54 57.5 74.22 51.81 74.22 46.02 84 46.02"></polygon><polygon points="45.49 59.71 45.1 60.09 40.19 55.17 22.68 55.17 22.68 54.63 40.41 54.63 45.49 59.71"></polygon><polygon points="26.75 46.02 26.75 46.56 11.8 46.56 6.27 52.1 6.27 54.9 5.73 54.9 5.73 51.87 11.58 46.02 26.75 46.02"></polygon></svg>