<svg height='100px' width='100px'  fill="#000000" xmlns="http://www.w3.org/2000/svg" xmlns:xlink="http://www.w3.org/1999/xlink" version="1.1" x="0px" y="0px" viewBox="0 0 100 37.73" enable-background="new 0 0 100 37.73" xml:space="preserve"><path d="M27.687,15.432v-4.998h-0.49v4.998c-0.331,0.104-0.572,0.41-0.572,0.775c0,0.451,0.366,0.816,0.816,0.816  c0.451,0,0.817-0.365,0.817-0.816C28.259,15.841,28.018,15.536,27.687,15.432z"></path><path d="M86.818,14.939v-1.757H38.879v-1.959h-5.461c-1.429-1.711-3.577-2.802-5.976-2.802c-2.398,0-4.546,1.091-5.976,2.802h-2.983  H17.3V5.345l-1.138,0.853c0,0-0.769,0.694-0.907,1.908v3.117v1.959h-5.013v-2.305V7.76c-0.138-1.214-0.907-1.908-0.907-1.908  L8.199,5v5.877H5v2.305v4.667v0.979v3.111c0,0,2.997,7.9,3.448,8.976s1.795,1.009,1.795,1.009V18.828v-0.979h8.239v1.786v13.095  c0,0,1.343,0.067,1.795-1.008c0.404-0.962,2.845-7.386,3.354-8.729c1.127,0.635,2.427,0.999,3.81,0.999  c3.063,0,5.718-1.779,6.989-4.357h4.449v-1.786h47.939v-1.815H35.077v-1.095H86.818z M27.442,22.768  c-3.618,0-6.562-2.943-6.562-6.561s2.943-6.561,6.562-6.561c3.618,0,6.561,2.943,6.561,6.561S31.06,22.768,27.442,22.768z"></path><rect x="86.818" y="14.939" width="8.182" height="1.095"></rect><circle cx="40.838" cy="19.75" r="1.498"></circle><rect x="26.549" y="24.475" width="2.074" height="1.037"></rect></svg>