<svg height='100px' width='100px'  fill="#000000" xmlns="http://www.w3.org/2000/svg" xmlns:xlink="http://www.w3.org/1999/xlink" version="1.1" x="0px" y="0px" viewBox="0 0 68 68" enable-background="new 0 0 68 68" xml:space="preserve"><g><path d="M58.37988,56.23c0.27637,0,0.5-0.22363,0.5-0.5v-3.88965h0.99023c0.82715,0,1.5-0.67285,1.5-1.5v-1.96973H63   c1.37842,0,2.5-1.12109,2.5-2.5V22.14015c0-1.37891-1.12158-2.5-2.5-2.5h-1.62988v-1.96973c0-0.82715-0.67285-1.5-1.5-1.5h-0.99023   v-3.90039c0-0.27637-0.22363-0.5-0.5-0.5s-0.5,0.22363-0.5,0.5v3.90039h-0.99023c-0.82715,0-1.5,0.67285-1.5,1.5v1.96973h-2.1499   v-1.96973c0-0.84082-0.65869-1.5-1.5-1.5H50.75v-3.90039c0-0.27637-0.22363-0.5-0.5-0.5s-0.5,0.22363-0.5,0.5v3.90039h-0.99023   c-0.82715,0-1.5,0.67285-1.5,1.5v1.96973h-2.13965v-1.96973c0-0.82715-0.67285-1.5-1.5-1.5h-0.99023v-3.90039   c0-0.27637-0.22363-0.5-0.5-0.5s-0.5,0.22363-0.5,0.5v3.90039h-1c-0.82715,0-1.5,0.67285-1.5,1.5v1.96973h-2.14014v-1.96973   c0-0.82715-0.67285-1.5-1.5-1.5H34.5v-3.90039c0-0.27637-0.22363-0.5-0.5-0.5s-0.5,0.22363-0.5,0.5v3.90039h-0.99023   c-0.82715,0-1.5,0.67285-1.5,1.5v1.96973h-2.1499v-1.96973c0-0.82715-0.67285-1.5-1.5-1.5h-0.98975v-3.90039   c0-0.27637-0.22363-0.5-0.5-0.5s-0.5,0.22363-0.5,0.5v3.90039h-0.99023c-0.82715,0-1.5,0.67285-1.5,1.5v1.96973h-2.1499v-1.96973   c0-0.84082-0.65869-1.5-1.5-1.5h-0.99023v-3.90039c0-0.27637-0.22363-0.5-0.5-0.5s-0.5,0.22363-0.5,0.5v3.90039H16.25   c-0.82715,0-1.5,0.67285-1.5,1.5v1.96973h-2.14014v-1.96973c0-0.82715-0.67285-1.5-1.5-1.5h-0.98975v-3.90039   c0-0.27637-0.22363-0.5-0.5-0.5s-0.5,0.22363-0.5,0.5v3.90039H8.12988c-0.84131,0-1.5,0.65918-1.5,1.5v1.96973H5   c-1.37842,0-2.5,1.12109-2.5,2.5v23.73047c0,1.37891,1.12158,2.5,2.5,2.5h1.62988v1.96973c0,0.82715,0.67285,1.5,1.5,1.5h0.99023   V55.73c0,0.27637,0.22363,0.5,0.5,0.5s0.5-0.22363,0.5-0.5v-3.88965h0.98975c0.82715,0,1.5-0.67285,1.5-1.5v-1.96973H14.75v1.96973   c0,0.82715,0.67285,1.5,1.5,1.5h0.98975V55.73c0,0.27637,0.22363,0.5,0.5,0.5s0.5-0.22363,0.5-0.5v-3.88965h0.99023   c0.82715,0,1.5-0.67285,1.5-1.5v-1.96973h2.1499v1.96973c0,0.82715,0.67285,1.5,1.5,1.5h0.99023V55.73   c0,0.27637,0.22363,0.5,0.5,0.5s0.5-0.22363,0.5-0.5v-3.88965h0.98975c0.82715,0,1.5-0.67285,1.5-1.5v-1.96973h2.1499v1.96973   c0,0.82715,0.67285,1.5,1.5,1.5H33.5V55.73c0,0.27637,0.22363,0.5,0.5,0.5s0.5-0.22363,0.5-0.5v-3.88965h0.98975   c0.82715,0,1.5-0.67285,1.5-1.5v-1.96973h2.14014v1.96973c0,0.82715,0.67285,1.5,1.5,1.5h1V55.73c0,0.27637,0.22363,0.5,0.5,0.5   s0.5-0.22363,0.5-0.5v-3.88965h0.99023c0.82715,0,1.5-0.67285,1.5-1.5v-1.96973h2.13965v1.96973c0,0.82715,0.67285,1.5,1.5,1.5   H49.75V55.73c0,0.27637,0.22363,0.5,0.5,0.5s0.5-0.22363,0.5-0.5v-3.88965h0.98975c0.82715,0,1.5-0.67285,1.5-1.5v-1.96973h2.1499   v1.96973c0,0.82715,0.67285,1.5,1.5,1.5h0.99023V55.73C57.87988,56.00636,58.10352,56.23,58.37988,56.23z M56.38965,17.67042   c0-0.28027,0.21973-0.5,0.5-0.5h2.98047c0.28027,0,0.5,0.21973,0.5,0.5v1.96973h-3.98047V17.67042z M48.25977,17.67042   c0-0.28027,0.21973-0.5,0.5-0.5h2.97998c0.28516,0,0.5,0.21484,0.5,0.5v1.96973h-3.97998V17.67042z M40.12988,17.67042   c0-0.28027,0.21973-0.5,0.5-0.5h2.99023c0.28027,0,0.5,0.21973,0.5,0.5v1.96973h-3.99023V17.67042z M32.00977,17.67042   c0-0.28027,0.21973-0.5,0.5-0.5h2.97998c0.28027,0,0.5,0.21973,0.5,0.5v1.96973h-3.97998V17.67042z M23.87988,17.67042   c0-0.28027,0.21973-0.5,0.5-0.5h2.97998c0.28027,0,0.5,0.21973,0.5,0.5v1.96973h-3.97998V17.67042z M15.75,17.67042   c0-0.28027,0.21973-0.5,0.5-0.5h2.97998c0.28516,0,0.5,0.21484,0.5,0.5v1.96973H15.75V17.67042z M7.62988,17.67042   c0-0.28516,0.21484-0.5,0.5-0.5h2.97998c0.28027,0,0.5,0.21973,0.5,0.5v1.96973H7.62988V17.67042z M3.5,45.87062V22.14015   c0-0.82715,0.67285-1.5,1.5-1.5c4.7972,0,58.9301,0,58,0c0.82715,0,1.5,0.67285,1.5,1.5v23.73047c0,0.82715-0.67285,1.5-1.5,1.5   c-16.17066,0-29.34185,0-58,0C4.17285,47.37062,3.5,46.69777,3.5,45.87062z M11.60986,50.34035c0,0.27539-0.22412,0.5-0.5,0.5   H8.12988c-0.28027,0-0.5-0.21973-0.5-0.5v-1.96973h3.97998V50.34035z M19.72998,50.34035c0,0.28027-0.21973,0.5-0.5,0.5H16.25   c-0.27588,0-0.5-0.22461-0.5-0.5v-1.96973h3.97998V50.34035z M27.85986,50.34035c0,0.27539-0.22412,0.5-0.5,0.5h-2.97998   c-0.27588,0-0.5-0.22461-0.5-0.5v-1.96973h3.97998V50.34035z M35.98975,50.34035c0,0.27539-0.22412,0.5-0.5,0.5h-2.97998   c-0.27588,0-0.5-0.22461-0.5-0.5v-1.96973h3.97998V50.34035z M44.12012,50.34035c0,0.27539-0.22412,0.5-0.5,0.5h-2.99023   c-0.27588,0-0.5-0.22461-0.5-0.5v-1.96973h3.99023V50.34035z M52.23975,50.34035c0,0.28027-0.21973,0.5-0.5,0.5h-2.97998   c-0.27588,0-0.5-0.22461-0.5-0.5v-1.96973h3.97998V50.34035z M56.38965,50.34035v-1.96973h3.98047v1.96973   c0,0.27539-0.22412,0.5-0.5,0.5h-2.98047C56.61377,50.84035,56.38965,50.61574,56.38965,50.34035z"></path><path d="M23.91846,42.30617h20.15967c1.37842,0,2.5-1.12109,2.5-2.5V28.19581c0-1.37891-1.12158-2.5-2.5-2.5H23.91846   c-1.37842,0-2.5,1.12109-2.5,2.5v11.61035C21.41846,41.18507,22.54004,42.30617,23.91846,42.30617z M22.41846,28.19581   c0-0.82715,0.67285-1.5,1.5-1.5h20.15967c0.82715,0,1.5,0.67285,1.5,1.5v11.61035c0,0.82715-0.67285,1.5-1.5,1.5H23.91846   c-0.82715,0-1.5-0.67285-1.5-1.5V28.19581z"></path><path d="M24.41846,39.80617h19.16016c0.27637,0,0.5-0.22363,0.5-0.5V28.69679c0-0.27637-0.22363-0.5-0.5-0.5H24.41846   c-0.27637,0-0.5,0.22363-0.5,0.5v10.60938C23.91846,39.58253,24.14209,39.80617,24.41846,39.80617z M24.91846,29.19679h18.16016   v9.60938H24.91846V29.19679z"></path></g></svg>