<svg height='100px' width='100px'  fill="#000000" xmlns:x="http://ns.adobe.com/Extensibility/1.0/" xmlns:i="http://ns.adobe.com/AdobeIllustrator/10.0/" xmlns:graph="http://ns.adobe.com/Graphs/1.0/" xmlns="http://www.w3.org/2000/svg" xmlns:xlink="http://www.w3.org/1999/xlink" version="1.1" x="0px" y="0px" viewBox="-949 951 100 100" style="enable-background:new -949 951 100 100;" xml:space="preserve"><g><g i:extraneous="self"><g><path d="M-895.9,1020.1v-56.7c0-5.5-4.5-10-10-10c-5.5,0-10,4.5-10,10v56.7c-3.7,3-6,7.6-6,12.4c0,8.8,7.2,16,16,16     c8.8,0,15.9-7.2,15.9-16C-890,1027.7-892.2,1023.1-895.9,1020.1z M-905.9,1045.1c-6.9,0-12.5-5.6-12.5-12.5c0-4.4,2.3-8.4,6-10.7     v-58.4c0-3.6,2.9-6.6,6.6-6.6c3.6,0,6.6,2.9,6.6,6.6v58.4c3.6,2.3,6,6.3,6,10.7C-893.4,1039.5-899,1045.1-905.9,1045.1z"></path><path d="M-902.8,1024v-22.9c0-1.7-1.4-3.1-3.1-3.1c-1.7,0-3.1,1.4-3.1,3.1v22.9c-3.5,1.3-6,4.6-6,8.5c0,5,4.1,9.1,9.1,9.1     c5,0,9.1-4.1,9.1-9.1C-896.8,1028.6-899.3,1025.3-902.8,1024z"></path><rect x="-892.4" y="963.6" width="16.3" height="3.4"></rect><rect x="-892.4" y="974.9" width="7.7" height="3.4"></rect><rect x="-892.4" y="986.3" width="16.3" height="3.4"></rect><rect x="-892.4" y="997.6" width="7.7" height="3.4"></rect><rect x="-892.4" y="1008.9" width="16.3" height="3.4"></rect></g></g></g></svg>