<svg height='100px' width='100px'  fill="#000000" xmlns="http://www.w3.org/2000/svg" viewBox="0 0 64 64" x="0px" y="0px"><title>mainboard-motherboard-board-computer</title><path d="M61,6H57V4H55V6H53V3a1,1,0,0,0-1-1H44a1,1,0,0,0-1,1V6H41V4H39V6H26V5a1,1,0,0,0-1-1H19a1,1,0,0,0-1,1V6H16V5a1,1,0,0,0-1-1H11a1,1,0,0,0-1,1V6H3A1,1,0,0,0,2,7V61a1,1,0,0,0,1,1H61a1,1,0,0,0,1-1V7A1,1,0,0,0,61,6Zm-5,4H52V8h4ZM40,10V8h4v2H40Zm10,0H46V8h4Zm-5,2h7.382l-1,2H44.618l-1-2Zm0-8h6V6H45ZM34,8v2H30V8Zm-.281,4-.5,2H30.781l-.5-2ZM20,6h4V8H20V6ZM12,6h2V8H12V6ZM40,60V58H52v2Zm14,0V57a1,1,0,0,0-1-1H51V54H49v2H47V54H45v2H43V54H41v2H39a1,1,0,0,0-1,1v3H4V8h6V9a1,1,0,0,0,1,1h4a1,1,0,0,0,1-1V8h2V9a1,1,0,0,0,1,1h6a1,1,0,0,0,1-1V8h2v3a.912.912,0,0,0,.028.138.9.9,0,0,0,0,.1l1,4A1,1,0,0,0,30,16h4a1,1,0,0,0,.97-.758l1-4a.9.9,0,0,0,0-.1A.912.912,0,0,0,36,11V8h2v3a1,1,0,0,0,1,1v3h2V12h.382l1.723,3.447A1,1,0,0,0,44,16h8a1,1,0,0,0,.9-.553L54.618,12H55v3h2V12a1,1,0,0,0,1-1V8h2V18H54a1,1,0,0,0-.707.293L51.586,20h-1.77a2.982,2.982,0,0,0-5.632,0H41a1,1,0,0,0-1,1v5a1,1,0,0,0,.293.707l2,2A1,1,0,0,0,43,29h5a1,1,0,0,0,.707-.293L50.414,27h1.77a3,3,0,1,0,0-2H50a1,1,0,0,0-.707.293L47.586,27H43.414L42,25.586V22h2.184a2.982,2.982,0,0,0,5.632,0H52a1,1,0,0,0,.707-.293L54.414,20H60V60ZM48,21a1,1,0,1,1-1-1A1,1,0,0,1,48,21Zm6,5a1,1,0,1,1,1,1A1,1,0,0,1,54,26Z"></path><rect x="6" y="10" width="2" height="2"></rect><rect x="6" y="56" width="2" height="2"></rect><rect x="56" y="56" width="2" height="2"></rect><path d="M11,14H7a1,1,0,0,0-1,1V31a1,1,0,0,0,1,1h4a1,1,0,0,0,1-1V15A1,1,0,0,0,11,14Zm-1,2v2H8V16ZM8,22V20h2v2Zm2,2v2H8V24ZM8,30V28h2v2Z"></path><path d="M11,36H7a1,1,0,0,0-1,1V53a1,1,0,0,0,1,1h4a1,1,0,0,0,1-1V37A1,1,0,0,0,11,36Zm-1,2v2H8V38ZM8,44V42h2v2Zm2,2v2H8V46ZM8,52V50h2v2Z"></path><path d="M15,32h4a1,1,0,0,0,1-1V15a1,1,0,0,0-1-1H15a1,1,0,0,0-1,1V31A1,1,0,0,0,15,32Zm1-2V28h2v2Zm2-6v2H16V24Zm-2-2V20h2v2Zm2-6v2H16V16Z"></path><path d="M35,38H32V37H30v1H28V37H26v1H24V37H22v1H20V37H18v1H15a1,1,0,0,0-1,1V55a1,1,0,0,0,1,1h3v1h2V56h2v1h2V56h2v1h2V56h2v1h2V56h3a1,1,0,0,0,1-1V39A1,1,0,0,0,35,38ZM16,54V40h2V54Zm4,0V40h2V54Zm4,0V40h2V54Zm4,0V40h2V54Zm6,0H32V40h2Z"></path><path d="M37.366,22.876l1.119-1.119a1,1,0,0,0,0-1.414l-2.828-2.828a1.029,1.029,0,0,0-1.414,0l-1.119,1.119a8,8,0,1,0,4.242,4.242Zm-2.087.27a6,6,0,1,1-2.425-2.425,1,1,0,0,0,1.183-.172l.913-.913,1.414,1.414-.913.913A1,1,0,0,0,35.279,23.146Z"></path><polygon points="31 23 29 23 29 25 27 25 27 27 29 27 29 29 31 29 31 27 33 27 33 25 31 25 31 23"></polygon><path d="M53,35.184V32H51v3H49V32H47v3H45V32H43v3.184A3,3,0,0,0,41.184,37H38v2h3v2H38v2h3v2H38v2h3.184A3,3,0,0,0,43,48.816V52h2V49h2v3h2V49h2v3h2V48.816A3,3,0,0,0,54.816,47H58V45H55V43h3V41H55V39h3V37H54.816A3,3,0,0,0,53,35.184ZM53,46a1,1,0,0,1-1,1H44a1,1,0,0,1-1-1V38a1,1,0,0,1,1-1h8a1,1,0,0,1,1,1Z"></path><path d="M50,39H46a1,1,0,0,0-1,1v4a1,1,0,0,0,1,1h4a1,1,0,0,0,1-1V40A1,1,0,0,0,50,39Zm-1,4H47V41h2Z"></path></svg>