<svg xmlns="http://www.w3.org/2000/svg" xmlns:xlink="http://www.w3.org/1999/xlink" width="100" height="100" viewBox="0 0 100 100"><g transform="translate(50 50) scale(0.69 0.69) rotate(90) translate(-50 -50)" style="fill:#000000"><svg fill="#000000" xmlns:dc="http://purl.org/dc/elements/1.1/" xmlns:cc="http://creativecommons.org/ns#" xmlns:rdf="http://www.w3.org/1999/02/22-rdf-syntax-ns#" xmlns:svg="http://www.w3.org/2000/svg" xmlns="http://www.w3.org/2000/svg" version="1.1" viewBox="0 0 100 100" xml:space="preserve" x="0px" y="0px"><path d="m 63.4375,7.25 0,13.5625 c -9.557983,0.08807 -15.932745,1.25028 -20.6875,3.4375 -5.04014,2.318724 -7.928254,6.006876 -9.8125,9.0625 -1.884245,3.055385 -3.017503,5.376902 -5.40625,7.46875 -1.74173,1.525433 -4.714959,4.558931 -9.09375,4.5625 -3.581371,0.0024 -8.6623707,0 -13.4375,0 l 0,9.21875 13.4375,0 c 4.146277,0 7.351707,3.13058 9.09375,4.65625 2.388869,2.092324 3.522005,4.413126 5.40625,7.46875 1.884246,3.055385 4.77236,6.743895 9.8125,9.0625 4.753146,2.186623 11.134753,3.318137 20.6875,3.40625 l 0,13.59375 L 95,74.53125 l -31.5625,-18.25 0,13.59375 C 54.692641,69.775663 49.562249,68.663485 46.625,67.3125 43.498005,65.873916 42.414236,64.359171 40.84375,61.8125 39.273265,59.265592 37.463757,55.580721 33.625,52.21875 32.738165,51.442114 31.751185,50.707871 30.65625,50 c 1.094935,-0.707633 2.081915,-1.441876 2.96875,-2.21875 3.838757,-3.36209 5.648265,-7.04708 7.21875,-9.59375 1.570486,-2.546671 2.654255,-4.061416 5.78125,-5.5 2.937249,-1.351325 8.067641,-2.463496 16.8125,-2.5625 l 0,13.59375 L 95,25.46875 63.4375,7.25 z" style="text-indent:0;text-transform:none;direction:ltr;block-progression:tb;baseline-shift:baseline;color:#000000;enable-background:accumulate;" fill="#000000" fill-opacity="1" fill-rule="evenodd" stroke="none" marker="none" visibility="visible" display="inline" overflow="visible"></path></svg></g></svg>