<svg height='100px' width='100px'  fill="#000000" xmlns="http://www.w3.org/2000/svg" xmlns:xlink="http://www.w3.org/1999/xlink" version="1.1" x="0px" y="0px" viewBox="0 0 68 68" enable-background="new 0 0 68 68" xml:space="preserve"><g><path d="M59.5539551,2.0000007H8.9187012v3.9394534H3.6271973v31.7353516h6.121521l0.3911743,4.7490234   c0.1235352,1.4931641,1.3935547,2.6630859,2.8916016,2.6630859s2.7680664-1.1699219,2.8916016-2.6630859l0.3911743-4.7490234   h4.4032593c0.6811523,0,1.2353516,0.5537109,1.2353516,1.2353516v2.9404297c0,1.7841797,1.4516602,3.2363281,3.2358398,3.2363281   h3.3398438v6.5751953h2.3051758v6.0400391h2.402832V64H3.154541v2h60.3076172v-2H35.2365723v-6.2978516h2.4023438v-6.0400391   h2.3051758v-6.5751953h3.3300781c1.7841797,0,3.2358398-1.4521484,3.2358398-3.2363281v-2.9404297   c0-0.6816406,0.5541992-1.2353516,1.2353516-1.2353516h4.4130249l0.3911743,4.7490234   c0.1235352,1.4931641,1.3935547,2.6630859,2.8916016,2.6630859s2.7680664-1.1699219,2.8916016-2.6630859l0.3911743-4.7490234   h6.121521V5.9394541h-5.2915039V2.0000007z M10.9187012,4.000001h46.6352539v5.8876953H42.7043457   c-2.1298828-2.4785156-5.1889648-3.890625-8.4682617-3.890625s-6.3378906,1.4121094-8.4672852,3.890625H10.9187012V4.000001z    M13.0314941,43.0869141c-0.465332,0-0.8598633-0.3632813-0.8984375-0.8271484L11.170166,30.5703125   c-0.2155514-2.6356068,3.9387112-2.641758,3.7226563,0l-0.9628906,11.6894531   C13.8913574,42.7236328,13.4968262,43.0869141,13.0314941,43.0869141z M35.638916,55.7021484h-2.8051758v-4.0400391h2.8051758   V55.7021484z M37.9440918,49.6621094c-1.9018593,0-5.6016731,0-7.4155273,0V34.0273438h7.4155273V49.6621094z    M55.4411621,43.0869141c-0.465332,0-0.8598633-0.3632813-0.8984375-0.8271484L53.579834,30.5703125   c-0.2165871-2.6482906,3.9375458-2.6275005,3.7226563,0l-0.9628906,11.6894531   C56.3010254,42.7236328,55.9064941,43.0869141,55.4411621,43.0869141z M62.845459,7.9394541v27.7353516h-3.9550781   l0.4052734-4.9404297c0.1852951-2.250145-1.5959282-4.1835938-3.8544922-4.1835938   c-2.2578316,0-4.0398521,1.9326591-3.8544922,4.1835938l0.4052734,4.9404297h-4.246582   c-1.7841797,0-3.2353516,1.4511719-3.2353516,3.2353516v2.9404297c0,0.6816406-0.5541992,1.2363281-1.2358398,1.2363281h-3.3300781   V32.0273438H28.5285645v11.0595703h-3.3398438c-0.6816406,0-1.2358398-0.5546875-1.2358398-1.2363281v-2.9404297   c0-1.7841797-1.4511719-3.2353516-3.2353516-3.2353516h-4.2368164l0.4052734-4.9404297   c0.3012009-3.6576691-4.2223034-5.6238518-6.6992188-2.9365234C9.4567871,28.5908203,9.088623,29.6611328,9.177002,30.734375   l0.4052734,4.9404297H5.6271973V7.9394541h3.2915039v3.9482422h17.8081055   c0.1922894-0.1597834,2.4058571-3.890625,7.5092773-3.890625c4.9876595,0,7.3793564,3.7814827,7.5107422,3.890625h17.8071289   V7.9394541H62.845459z"></path><path d="M34.236084,9.8876963c-4.0214844,0-7.2929688,3.2724609-7.2929688,7.2939444   c0,1.6515503,0.5675049,3.2384033,1.5854492,4.5089111v9.1746826h11.4155273v-9.1758423   c1.0210571-1.2779541,1.5854492-2.8607788,1.5854492-4.5077515C41.529541,13.1601572,38.2575684,9.8876963,34.236084,9.8876963z    M34.236084,11.8876963c2.9189453,0,5.293457,2.375,5.293457,5.2939444c0,2.8154964-2.299202,5.2929688-5.293457,5.2929688   c-2.9659386,0-5.2929688-2.4633999-5.2929688-5.2929688C28.9431152,14.2626963,31.317627,11.8876963,34.236084,11.8876963z    M37.9440918,28.8652344h-7.4155273v-5.4072266c0.1464195,0.0787182,0.3341484,0.2044697,0.8511963,0.4257813   c0.0119019,0.0050049,0.0240479,0.0091553,0.0359497,0.0140381c0.881897,0.3718262,1.8373413,0.5767822,2.8203735,0.5767822   c1.5010071,0,2.5836258-0.4109478,3.7080078-1.015625V28.8652344z"></path><path d="M34.2351074,20.5820313c1.8754883,0,3.4013672-1.5253906,3.4013672-3.4013672s-1.5258789-3.4013662-3.4013672-3.4013662   s-3.4013672,1.5253906-3.4013672,3.4013662S32.3596191,20.5820313,34.2351074,20.5820313z M34.2351074,15.7792978   c0.7729492,0,1.4013672,0.6289053,1.4013672,1.4013662s-0.628418,1.4013672-1.4013672,1.4013672   s-1.4013672-0.6289063-1.4013672-1.4013672S33.4621582,15.7792978,34.2351074,15.7792978z"></path><rect x="41.6381454" y="53.6603584" transform="matrix(-0.5582989 -0.8296399 0.8296399 -0.5582989 18.3279209 125.7499924)" width="2.0010564" height="8.6714725"></rect><rect x="23.3618546" y="53.6605606" transform="matrix(0.5587512 -0.8293353 0.8293353 0.5587512 -37.3486938 45.7946167)" width="1.9994363" height="8.6710682"></rect><rect x="53.2443848" y="5.9394531" width="2.25" height="2"></rect></g></svg>