<svg height='100px' width='100px'  fill="#000000" xmlns="http://www.w3.org/2000/svg" xmlns:xlink="http://www.w3.org/1999/xlink" version="1.1" x="0px" y="0px" viewBox="0 0 100 100" style="enable-background:new 0 0 100 100;" xml:space="preserve"><g><path d="M85.6,26.9c-0.2-0.2-0.5-0.3-0.8-0.2l-3.7,0.5v-3.7c0-0.6-0.4-1-1-1c-21.2,0-28,3.2-30.2,5.4c-2.2-2.2-9-5.4-30.2-5.4   c-0.6,0-1,0.4-1,1v3.7l-3.5-0.5c-0.3,0-0.6,0.1-0.8,0.2s-0.3,0.5-0.3,0.8v45.2c0,0.5,0.4,0.9,0.9,1l34.8,4.6c0,0,0.1,0,0.1,0   c0,0,0.1,0,0.1,0l35-4.6c0.5-0.1,0.9-0.5,0.9-1V27.6C85.9,27.3,85.8,27,85.6,26.9z M79.1,24.4v41.9c-17.9,0.1-25.2,2.5-28.2,4.6   v-41C51,29.5,53.1,24.5,79.1,24.4z M20.7,24.4c26,0.1,28.1,5.1,28.2,5.5v41c-3-2.1-10.3-4.5-28.2-4.6V24.4z M83.9,71.9l-34,4.5   l-33.8-4.5V28.7l2.6,0.3v38.2c0,0.6,0.4,1,1,1c27.7,0,29.2,5.4,29.2,5.4c0,0.1,0,0.2,0.1,0.3c0,0,0,0,0,0c0.2,0.4,0.5,0.7,0.9,0.7   c0.5,0,1-0.4,1-0.9c0-0.1,1.4-5.5,29.2-5.5c0.6,0,1-0.4,1-1V29.1l2.8-0.3V71.9z"></path><path d="M26.9,31.7c-0.6,0-1,0.5-0.9,1.1c0,0.5,0.5,1,1.1,0.9c11.6-0.9,15.7,2.4,15.8,2.5c0.2,0.2,0.4,0.3,0.7,0.3   c0.3,0,0.5-0.1,0.7-0.3c0.4-0.4,0.3-1-0.1-1.4C44,34.5,39.6,30.7,26.9,31.7z"></path><path d="M26.9,39.9c-0.6,0-1,0.5-0.9,1.1c0,0.6,0.5,1,1.1,0.9c11.6-0.9,15.7,2.4,15.8,2.5c0.2,0.2,0.4,0.3,0.7,0.3   c0.3,0,0.5-0.1,0.7-0.3c0.4-0.4,0.3-1-0.1-1.4C44,42.7,39.6,38.9,26.9,39.9z"></path><path d="M26.9,48.1c-0.6,0-1,0.5-0.9,1.1c0,0.5,0.5,1,1.1,0.9c11.6-0.9,15.7,2.4,15.8,2.5c0.2,0.2,0.4,0.3,0.7,0.3   c0.3,0,0.5-0.1,0.7-0.3c0.4-0.4,0.3-1-0.1-1.4C44,50.9,39.6,47.1,26.9,48.1z"></path><path d="M26.9,56.3c-0.6,0-1,0.5-0.9,1.1c0,0.5,0.5,1,1.1,0.9c11.6-0.9,15.7,2.4,15.8,2.5c0.2,0.2,0.4,0.3,0.7,0.3   c0.3,0,0.5-0.1,0.7-0.3c0.4-0.4,0.3-1-0.1-1.4C44,59.1,39.6,55.3,26.9,56.3z"></path><path d="M56.3,36.4c0.2,0,0.5-0.1,0.7-0.2c0,0,4.1-3.4,15.8-2.5c0.6,0.1,1-0.4,1.1-0.9c0-0.6-0.4-1-0.9-1.1   c-12.7-1-17.1,2.8-17.3,3c-0.4,0.4-0.4,1-0.1,1.4C55.8,36.3,56,36.4,56.3,36.4z"></path><path d="M56.3,44.6c0.2,0,0.5-0.1,0.7-0.2c0,0,4.1-3.4,15.8-2.5c0.6,0.1,1-0.4,1.1-0.9c0-0.6-0.4-1-0.9-1.1   c-12.7-1-17.1,2.8-17.3,3c-0.4,0.4-0.4,1-0.1,1.4C55.8,44.5,56,44.6,56.3,44.6z"></path><path d="M56.3,52.8c0.2,0,0.5-0.1,0.7-0.2c0,0,4.1-3.4,15.8-2.5c0.6,0.1,1-0.4,1.1-0.9c0-0.6-0.4-1-0.9-1.1   c-12.7-1-17.1,2.8-17.3,3c-0.4,0.4-0.4,1-0.1,1.4C55.8,52.7,56,52.8,56.3,52.8z"></path><path d="M62.8,56.6c-5.1,0.8-7.1,2.6-7.2,2.6c-0.4,0.4-0.4,1-0.1,1.4c0.2,0.2,0.5,0.3,0.8,0.3c0.2,0,0.5-0.1,0.7-0.2   c0,0,1.7-1.4,6.2-2.2c0.5-0.1,0.9-0.6,0.8-1.1S63.4,56.5,62.8,56.6z"></path></g></svg>