<svg height='100px' width='100px'  fill="#000000" xmlns="http://www.w3.org/2000/svg" class="icon" viewBox="0 0 1024 1024" version="1.1" x="0px" y="0px"><path fill="#000000" d="M234.2 837.9c-3.9 0-7.6-1.5-10.4-4.3l-55.1-55.1a14.6 14.6 0 0 1-4.3-10.4c0-3.9 1.5-7.6 4.3-10.4l522.8-522.8c2.8-2.8 6.5-4.3 10.4-4.3 3.9 0 7.6 1.5 10.4 4.3l55.1 55.1c5.7 5.7 5.7 15 0 20.8L244.6 833.6a14.6 14.6 0 0 1-10.4 4.3z m-3.7-18.5c-0.1 0-0.1 0 0 0-0.1 0.1-0.1 0.1 0 0z m-43.9-51.3l47.6 47.6 515.3-515.3-47.6-47.6-515.3 515.3z"></path><path fill="#000000" d="M234.2 837.9c-3.9 0-7.6-1.5-10.4-4.3l-55.1-55.1a14.6 14.6 0 0 1-4.3-10.4c0-3.9 1.5-7.6 4.3-10.4l522.8-522.8c2.8-2.8 6.5-4.3 10.4-4.3 3.9 0 7.6 1.5 10.4 4.3l55.1 55.1c5.7 5.7 5.7 15 0 20.8L244.6 833.6a14.6 14.6 0 0 1-10.4 4.3z m-3.7-18.5c-0.1 0-0.1 0 0 0-0.1 0.1-0.1 0.1 0 0z m-43.9-51.3l47.6 47.6 515.3-515.3-47.6-47.6-515.3 515.3z"></path><path fill="#000000" d="M809.3 616h-1l-102.2-9.1c-17.7-1.6-33.1-8.5-44.6-20l-88.2-88.2c-6.2-6.2-5.6-16.6 1.4-23.6l48-48c7-7 17.4-7.6 23.6-1.4L817.6 597c3.2 3.2 4.1 8.1 2.1 12.3-2 4.1-6 6.7-10.4 6.7zM590.5 487.7l85.2 85.2c8.1 8.1 19.3 13 32.2 14.2l78.3 6.9-151-151-44.7 44.7zM885.7 549.8c-2.8 0-5.6-1.1-7.7-3.1L701.9 370.3c-6.3-6.3-5.7-16.7 1.3-23.7l48-47.9c7-7 17.4-7.6 23.7-1.3l90.7 90.8c11.7 11.7 18.9 27.4 20.7 45.3l10.6 103.8c0.5 4.7-2.1 9.3-6.5 11.4-1.5 0.7-3.1 1.1-4.7 1.1z m-8.7-10.5zM719 359.1l155.5 155.8-8.1-79.4c-1.4-13.3-6.5-24.7-15-33.2l-87.8-87.9-44.6 44.7zM320.5 630c-2.6 0-5.1-1-7.1-2.9l-24.6-24.6c-3.9-3.9-3.9-10.2 0-14.1l142-142-93.3-93.3c-3.9-3.9-4.8-9.6-2.2-14.2 2.5-4.5 7.5-6.7 12.6-5.5L448 356.8c13.1 3.1 26 10.4 36.3 20.7l39.3 39.3c3.9 3.9 3.9 10.2 0 14.1L327.5 627.1c-1.9 1.9-4.5 2.9-7 2.9zM310 595.4l10.4 10.4 182-182-32.2-32.2c-7.7-7.7-17.2-13.1-26.7-15.4l-71.2-16.6 79.7 79.7c3.9 3.9 3.9 10.2 0 14.1l-142 142z"></path><path fill="#000000" d="M320.5 630c-2.6 0-5.1-1-7.1-2.9l-24.6-24.6c-3.9-3.9-3.9-10.2 0-14.1l142-142-93.3-93.3c-3.9-3.9-4.8-9.6-2.2-14.2 2.5-4.5 7.5-6.7 12.6-5.5L448 356.8c13.1 3.1 26 10.4 36.3 20.7l39.3 39.3c3.9 3.9 3.9 10.2 0 14.1L327.5 627.1c-1.9 1.9-4.5 2.9-7 2.9zM310 595.4l10.4 10.4 182-182-32.2-32.2c-7.7-7.7-17.2-13.1-26.7-15.4l-71.2-16.6 79.7 79.7c3.9 3.9 3.9 10.2 0 14.1l-142 142zM409.1 714.7c-2.7 0-5.2-1.1-7.1-2.9l-24.9-24.9c-3.9-3.9-3.9-10.2 0-14.1l192.2-192.2c1.9-1.9 4.4-2.9 7.1-2.9s5.2 1.1 7.1 2.9l24.9 24.9c3.9 3.9 3.9 10.2 0 14.1L416.1 711.8c-1.8 1.8-4.4 2.9-7 2.9z m-10.8-34.9l10.7 10.7 178-178-10.7-10.7-178 178zM157.5 880.2c-3.2 0-6.4-1.2-8.8-3.6l-22.1-22.1c-2.3-2.3-3.6-5.5-3.6-8.8s1.3-6.4 3.6-8.8l55.7-55.7c4.8-4.8 12.7-4.8 17.5 0l22.1 22.1c2.3 2.3 3.6 5.5 3.6 8.8s-1.3 6.4-3.6 8.8l-55.7 55.7c-2.4 2.4-5.6 3.6-8.7 3.6z m1.7-10.7z m-13.1-23.7l11.3 11.3 44.9-44.9-11.3-11.3-44.9 44.9zM596 353.5c-3.2 0-6.5-1.2-8.9-3.7l-37.5-37.5C539.3 302 532 289.1 528.9 276l-23.4-100.2c-1.2-5.1 1-10.1 5.5-12.6 4.6-2.6 10.3-1.7 14.2 2.2l86.1 86.1 50-50c2.4-2.4 5.7-3.7 9.1-3.6 3.3 0.1 6.3 1.4 8.7 3.7l28.1 28.1c4.9 4.9 4.9 12.8 0.1 17.7L604.8 349.8c-2.4 2.4-5.6 3.7-8.8 3.7z m-64.3-153.2l16.6 71.2c2.2 9.5 7.7 19 15.4 26.7l32.2 32.2 91.7-91.7-17.5-17.7-45.7 45.7c-3.6 3.6-8.3 5.5-13.4 5.4-4.9-0.1-9.6-2.1-13.1-5.6l-66.2-66.2z"></path><path fill="#000000" d="M545 529c-2.6 0-5.1-1-7.1-2.9l-19.6-19.6c-3.9-3.9-3.9-10.2 0-14.1 3.9-3.9 10.2-3.9 14.1 0L552 512c3.9 3.9 3.9 10.2 0 14.1-1.9 2-4.4 2.9-7 2.9zM490.1 583.9c-2.6 0-5.1-1-7.1-2.9l-19.6-19.6c-3.9-3.9-3.9-10.2 0-14.1s10.2-3.9 14.1 0l19.6 19.6c3.9 3.9 3.9 10.2 0 14.1-1.9 2-4.4 2.9-7 2.9zM434.2 637.9c-2.6 0-5.1-1-7.1-2.9l-19.6-19.6c-3.9-3.9-3.9-10.2 0-14.1s10.2-3.9 14.1 0l19.6 19.6c3.9 3.9 3.9 10.2 0 14.1-1.9 1.9-4.4 2.9-7 2.9zM311 590.1c-3.1 0-6-1.2-8.2-3.4l-34.1-34.1c-2.2-2.2-3.4-5.1-3.4-8.2s1.2-6 3.4-8.2l35.3-35.3c2.2-2.2 5.1-3.4 8.2-3.4s6 1.2 8.2 3.4l34.1 34.1c2.2 2.2 3.4 5.1 3.4 8.2s-1.2 6-3.4 8.2l-35.3 35.3c-2.2 2.2-5.1 3.4-8.2 3.4z m-6-17.5z m-16.1-28.1l22.1 22.1 23.3-23.3-22.1-22.1-23.3 23.3zM779.6 326.3c-2.6 0-5.1-1-7.1-2.9l-99.8-100.3c-3.9-3.9-3.9-10.2 0-14.1 3.9-3.9 10.2-3.9 14.1 0l99.8 100.3c3.9 3.9 3.9 10.2 0 14.1-1.9 1.9-4.5 2.9-7 2.9z"></path></svg>