<svg height='100px' width='100px'  fill="#000000" xmlns="http://www.w3.org/2000/svg" xmlns:xlink="http://www.w3.org/1999/xlink" version="1.1" x="0px" y="0px" viewBox="0 0 64 64" enable-background="new 0 0 64 64" xml:space="preserve"><metadata><?xpacket begin="&#65279;" id="W5M0MpCehiHzreSzNTczkc9d"?><x:xmpmeta xmlns:x="adobe:ns:meta/" x:xmptk="Adobe XMP Core 5.3-c011 66.145661, 2012/02/06-14:56:27        "></x:xmpmeta><?xpacket end="w"?></metadata><g><g><path d="M37.172,10l-0.586,0.586c-0.781,0.781-0.781,2.047,0,2.828C36.976,13.805,37.488,14,38,14s1.024-0.195,1.414-0.586l4-4    c0.781-0.781,0.781-2.047,0-2.828l-4-4c-0.78-0.781-2.048-0.781-2.828,0c-0.781,0.781-0.781,2.047,0,2.828L37.172,6H17.798    C17.93,6.646,18,7.315,18,8s-0.07,1.354-0.202,2H37.172z"></path><path d="M8,0C3.589,0,0,3.589,0,8s3.589,8,8,8s8-3.589,8-8S12.411,0,8,0z"></path><path d="M26.828,54l0.586-0.586c0.781-0.781,0.781-2.047,0-2.828c-0.78-0.781-2.048-0.781-2.828,0l-4,4    c-0.781,0.781-0.781,2.047,0,2.828l4,4C24.976,61.805,25.488,62,26,62s1.024-0.195,1.414-0.586c0.781-0.781,0.781-2.047,0-2.828    L26.828,58h19.374C46.07,57.354,46,56.685,46,56s0.07-1.354,0.202-2H26.828z"></path><path d="M56,48c-4.411,0-8,3.589-8,8s3.589,8,8,8s8-3.589,8-8S60.411,48,56,48z"></path><path d="M54,18v19.172l-0.586-0.586c-0.78-0.781-2.048-0.781-2.828,0c-0.781,0.781-0.781,2.047,0,2.828l4,4    C54.976,43.805,55.488,44,56,44s1.024-0.195,1.414-0.586l4-4c0.781-0.781,0.781-2.047,0-2.828c-0.78-0.781-2.048-0.781-2.828,0    L58,37.172V18H54z"></path><path d="M62,0H50c-1.104,0-2,0.896-2,2v12c0,1.104,0.896,2,2,2h12c1.104,0,2-0.896,2-2V2C64,0.896,63.104,0,62,0z"></path><path d="M10,46V26.828l0.586,0.586C10.976,27.805,11.488,28,12,28s1.024-0.195,1.414-0.586c0.781-0.781,0.781-2.047,0-2.828l-4-4    c-0.78-0.781-2.048-0.781-2.828,0l-4,4c-0.781,0.781-0.781,2.047,0,2.828c0.78,0.781,2.048,0.781,2.828,0L6,26.828V46H10z"></path><path d="M14,48H2c-1.104,0-2,0.896-2,2v12c0,1.104,0.896,2,2,2h12c1.104,0,2-0.896,2-2V50C16,48.896,15.104,48,14,48z"></path></g></g></svg>