<svg height='100px' width='100px'  fill="#000000" xmlns:dc="http://purl.org/dc/elements/1.1/" xmlns:cc="http://creativecommons.org/ns#" xmlns:rdf="http://www.w3.org/1999/02/22-rdf-syntax-ns#" xmlns:svg="http://www.w3.org/2000/svg" xmlns="http://www.w3.org/2000/svg" xmlns:sodipodi="http://sodipodi.sourceforge.net/DTD/sodipodi-0.dtd" xmlns:inkscape="http://www.inkscape.org/namespaces/inkscape" viewBox="0 0 8.4666667 8.4666669" version="1.1" x="0px" y="0px"><svg:g><svg:path style="color:#000000;font-style:normal;font-variant:normal;font-weight:normal;font-stretch:normal;font-size:medium;line-height:normal;font-family:sans-serif;font-variant-ligatures:normal;font-variant-position:normal;font-variant-caps:normal;font-variant-numeric:normal;font-variant-alternates:normal;font-feature-settings:normal;text-indent:0;text-align:start;text-decoration:none;text-decoration-line:none;text-decoration-style:solid;text-decoration-color:#000000;letter-spacing:normal;word-spacing:normal;text-transform:none;writing-mode:lr-tb;direction:ltr;text-orientation:mixed;dominant-baseline:auto;baseline-shift:baseline;text-anchor:start;white-space:normal;shape-padding:0;clip-rule:nonzero;display:inline;overflow:visible;visibility:visible;opacity:1;isolation:auto;mix-blend-mode:normal;color-interpolation:sRGB;color-interpolation-filters:linearRGB;solid-color:#000000;solid-opacity:1;vector-effect:none;fill:#000000;fill-opacity:1;fill-rule:nonzero;stroke:none;stroke-width:0.52916664;stroke-linecap:round;stroke-linejoin:round;stroke-miterlimit:4;stroke-dasharray:none;stroke-dashoffset:0;stroke-opacity:1;color-rendering:auto;image-rendering:auto;shape-rendering:auto;text-rendering:auto;enable-background:accumulate" d="M 3.2331343,7.9203362e-7 A 0.26460979,0.26460979 0 0 0 2.9675191,0.26561779 v 0.214974 H 1.4384126 a 0.26460979,0.26460979 0 0 0 -0.2635488,0.26355 V 8.2031178 a 0.26460979,0.26460979 0 0 0 0.2635488,0.26355 h 5.5898388 a 0.26460979,0.26460979 0 0 0 0.2635515,-0.26355 V 0.74414179 a 0.26460979,0.26460979 0 0 0 -0.2635515,-0.26355 H 5.498629 v -0.214974 A 0.26460979,0.26460979 0 0 0 5.2330138,7.9203362e-7 Z M 3.4966857,0.52916779 h 1.4727767 v 0.214974 0.248047 H 3.4966857 v -0.248047 z M 1.7019614,1.0097588 h 1.2655577 v 0.248047 a 0.26460979,0.26460979 0 0 0 0.2656152,0.26355 h 1.9998795 a 0.26460979,0.26460979 0 0 0 0.2656152,-0.26355 v -0.248047 h 1.2640072 v 6.927742 H 1.7019614 Z m 1.9492357,1.169954 a 0.26460984,0.26460984 0 0 0 -0.1834515,0.07235 L 2.7272218,2.9274708 2.4776271,2.6892428 a 0.26537676,0.26537676 0 1 0 -0.3653525,0.384989 l 0.4294293,0.406177 a 0.26460984,0.26460984 0 0 0 0.1927543,0.07286 0.26460984,0.26460984 0 0 0 0.026355,-0.0021 0.26460984,0.26460984 0 0 0 0.1421104,-0.06666 L 3.8232794,2.6427338 A 0.26460984,0.26460984 0 0 0 3.6511971,2.1797128 Z m 0.8573135,0.42168 a 0.2648417,0.2648417 0 1 0 0,0.529683 h 1.66243 a 0.2648417,0.2648417 0 1 0 0,-0.529683 z m -0.8531781,1.338936 a 0.26460984,0.26460984 0 0 0 -0.029456,10e-4 0.26460984,0.26460984 0 0 0 -0.1581309,0.07235 L 2.7272218,4.6896368 2.4776271,4.4508928 a 0.26537676,0.26537676 0 1 0 -0.3653525,0.384989 l 0.4294293,0.406177 a 0.26460984,0.26460984 0 0 0 0.3612198,0.0041 L 3.8232794,4.4043838 A 0.26460984,0.26460984 0 0 0 3.6553325,3.9403288 Z m 0.8257884,0.422713 a 0.26519585,0.26519585 0 0 0 0.02739,0.529684 h 1.66243 a 0.264842,0.264842 0 1 0 0,-0.529684 h -1.66243 a 0.26460984,0.26460984 0 0 0 -0.02739,0 z m -0.8299238,1.337903 a 0.26460984,0.26460984 0 0 0 -0.1834515,0.07235 L 2.7272218,6.4492198 2.4776271,6.2130588 a 0.26525458,0.26525458 0 1 0 -0.3653525,0.384472 l 0.4294293,0.406177 a 0.26460984,0.26460984 0 0 0 0.3612198,0.0021 L 3.8232794,6.1639658 A 0.26460984,0.26460984 0 0 0 3.6511971,5.7009448 Z m 0.8309583,0.423747 a 0.26460984,0.26460984 0 0 0 -0.00103,5.17e-4 0.26500142,0.26500142 0 0 0 0.02739,0.529166 h 1.66243 a 0.2646485,0.2646485 0 1 0 0,-0.529166 h -1.66243 a 0.26460984,0.26460984 0 0 0 -0.026355,-5.17e-4 z"></svg:path></svg:g></svg>