<svg height='100px' width='100px'  fill="#FFFFFF" xmlns="http://www.w3.org/2000/svg" xmlns:xlink="http://www.w3.org/1999/xlink" version="1.1" x="0px" y="0px" viewBox="0 0 100 100" enable-background="new 0 0 100 100" xml:space="preserve"><path d="M93.241,65.971l-5.688-6.6l-6.353-18.15l-0.025-0.073l-6.67-9.052l-10.354,4.334l-1.421,2.843L50.037,26.399l-11.848,5.923  l-7.191,9.856l-9.872-5.993L9.562,47.514L3.451,73.6h93.097L93.241,65.971z M10.492,48.037l10.035-9.829l-1.333,11.665L5.232,70.498  L10.492,48.037z M5.065,72.574l15.12-22.335l1.434-12.555l8.771,5.325l-4.666,6.396l-0.563,4.449L14.35,72.574H5.065z   M15.534,72.574l9.298-16.096l-2.031,16.096H15.534z M23.834,72.574l2.876-22.778l11.27-15.445l-0.341,14.481l-8.223,10.666  l2.217,13.076H23.834z M41.418,72.574h-3.845l-1.591-7.064l3.668,1.156l1.768,3.832V72.574z M51.661,72.574l-0.552-2.076  l2.508-5.971l3.052-2.912l1.373,2.705l-1.625,4.738l0.604,3.516H51.661z M58.061,72.574l-0.589-3.432l1.681-4.902l-3.996-7.871  c0.052-0.059,0.104-0.113,0.156-0.174c0.283-0.318,0.559-0.648,0.834-0.977c-0.381,0.199-0.761,0.396-1.134,0.604  c-0.376,0.205-0.743,0.42-1.113,0.629c-0.18,0.113-0.382,0.199-0.54,0.338c-0.154,0.143-0.322,0.271-0.484,0.402l-0.727,0.586  l-8.428-4.215l-0.278-0.139l-0.251,0.18l-3.09,2.219l-0.775-0.361c-0.176-0.08-0.336-0.195-0.523-0.246l-0.564-0.164  c-0.748-0.219-1.505-0.422-2.273-0.602c0.518,0.391,1.045,0.762,1.574,1.125l-3.223,7.201l2.205,9.799h-3.849L30.504,59.77  l8.152-10.577l0.381-16.146l10.792-5.396l15.806,16.028l1.741,14.153l-5.618,14.742H58.061z M62.856,72.574l4.788-12.566  l1.547,12.566H62.856z M70.225,72.574L66.61,43.208l-3.118-3.162l1.15-2.301l8.167,9.364l1.191,13.358l6.244,12.107H70.225z   M81.4,72.574l-6.396-12.398l-1.203-13.492l-8.421-9.655l8.776-3.674l6.101,8.278l6.313,18.037l-2.653,12.904H81.4z M84.965,72.574  l2.43-11.816l4.784,5.551l-3.489,6.266H84.965z M92.744,67.402l2.241,5.172h-5.12L92.744,67.402z"></path></svg>