<svg height='100px' width='100px'  fill="#000000" xmlns="http://www.w3.org/2000/svg" data-name="Layer 1" viewBox="0 0 100 100" x="0px" y="0px"><title>Artboard 11</title><path d="M10.65,56.94l15,3.43,6.86-9.29a.93.93,0,0,1,1.65.34,17.62,17.62,0,0,0,3.32,6.83l2.29,2.91a1.71,1.71,0,0,1-.14,2.27l-7.36,7.36a5.86,5.86,0,0,1-5.74,1.87L7.8,68.37a5.89,5.89,0,0,1-4.27-7.61A6.06,6.06,0,0,1,10.65,56.94ZM75.38,22.51a10.88,10.88,0,0,0,13-8.19,10.89,10.89,0,1,0-13,8.19ZM41.57,11.07a4.79,4.79,0,0,0-4.86,1.15L24.13,24.64a5,5,0,0,0-.41,6.77,4.84,4.84,0,0,0,7.06.27L41.36,21.24,50,25.75,41.15,39.27a13.71,13.71,0,0,0,1.06,15.5L54.95,71,46,90.41a6.06,6.06,0,0,0,1.4,7.17A5.93,5.93,0,0,0,50,98.85a5.61,5.61,0,0,0,.68.11,5.92,5.92,0,0,0,6-3.4L67.13,72.64a5.8,5.8,0,0,0-.63-6L58.42,51.47,65.9,38.4l3.77,7.72a4.82,4.82,0,0,0,3.46,3l.46.08,17.72,2.3a4.72,4.72,0,0,0,3.68-1,4.81,4.81,0,0,0,1.78-3.39,5,5,0,0,0-4.44-5.2L77.72,40,73.67,30a12.58,12.58,0,0,0-4.55-5.66A100.24,100.24,0,0,0,43.05,11.55Z"></path></svg>