<svg height='100px' width='100px'  fill="#000000" xmlns="http://www.w3.org/2000/svg" xmlns:xlink="http://www.w3.org/1999/xlink" version="1.1" x="0px" y="0px" viewBox="0 0 1024 1024" style="enable-background:new 0 0 1024 1024;" xml:space="preserve"><g><path d="M929,595H817v-60h112V595z M207,595H95v-60h112V595z M274.9,371l-78.6-78.8l42.5-42.4l78.6,78.8L274.9,371z    M748.9,370.8l-42.4-42.5l78.8-78.6l42.4,42.5L748.9,370.8z M542,260h-60V148h60V260z"></path><path d="M229.7,903.8L206.9,881C117,791,65.5,676,65.5,565.5c0-58,11-114.5,32.7-168   c22.5-55.4,55.5-105.1,98.1-147.7c42.6-42.6,92.3-75.6,147.7-98.1C397.5,130,454,119,512,119s114.5,11,168,32.7   c55.4,22.5,105.1,55.5,147.7,98.1c42.6,42.6,75.6,92.3,98.1,147.7c21.7,53.5,32.7,110,32.7,168c0,57.9-11,114.4-32.6,167.9   c-22.4,55.4-55.4,105-97.9,147.6l-21.4,21.5l-99.9-100.1l42.5-42.4l56.6,56.7c60-70,92.8-158.1,92.8-251.3   c0-103.2-40.2-200.3-113.2-273.3C712.3,219.2,615.2,179,512,179c-103.2,0-200.3,40.2-273.3,113.2c-73,73-113.2,170.1-113.2,273.3   c0,85.5,36.8,174.9,101.9,249.5l46.4-53.4l45.3,39.4L229.7,903.8z"></path><path d="M512,688c-44.1,0-80-35.9-80-80s35.9-80,80-80s80,35.9,80,80S556.1,688,512,688z M512,588c-11,0-20,9-20,20   s9,20,20,20c11,0,20-9,20-20S523,588,512,588z"></path><rect x="482" y="359" width="60" height="199"></rect></g></svg>