<svg height='100px' width='100px'  fill="#000000" xmlns="http://www.w3.org/2000/svg" xmlns:xlink="http://www.w3.org/1999/xlink" version="1.1" x="0px" y="0px" viewBox="0 0 100 100" enable-background="new 0 0 100 100" xml:space="preserve"><g><path d="M30.189,39.313c0.706,1.058,1.769,1.693,2.92,1.743c0.05,0.003,0.098,0.003,0.146,0.003c1.097,0,2.152-0.536,2.914-1.488   l6.844-8.554c0.55-0.688,0.438-1.688-0.248-2.238c-0.688-0.548-1.688-0.438-2.237,0.249l-6.844,8.555   c-0.148,0.187-0.304,0.31-0.438,0.294c-0.12-0.006-0.277-0.131-0.409-0.329l-2.334-3.503c-0.487-0.731-1.477-0.93-2.207-0.442   c-0.732,0.487-0.93,1.476-0.442,2.208L30.189,39.313z"></path><path d="M49.181,37.604H67.7c0.88,0,1.593-0.712,1.593-1.592c0-0.878-0.713-1.591-1.593-1.591h-18.52   c-0.88,0-1.593,0.713-1.593,1.591C47.588,36.893,48.301,37.604,49.181,37.604z"></path><path d="M42.766,47.589c-0.688-0.549-1.688-0.438-2.237,0.248l-6.844,8.556c-0.148,0.187-0.324,0.296-0.438,0.292   c-0.12-0.006-0.277-0.132-0.409-0.329l-2.334-3.501c-0.489-0.733-1.477-0.929-2.207-0.443c-0.732,0.488-0.93,1.476-0.441,2.209   l2.334,3.5c0.706,1.059,1.77,1.696,2.92,1.744c0.05,0.003,0.098,0.005,0.146,0.005c1.098,0,2.153-0.537,2.914-1.489l6.844-8.553   C43.563,49.139,43.452,48.138,42.766,47.589z"></path><path d="M49.181,56.415H67.7c0.88,0,1.593-0.712,1.593-1.592s-0.713-1.592-1.593-1.592h-18.52c-0.88,0-1.593,0.712-1.593,1.592   S48.301,56.415,49.181,56.415z"></path><path d="M30.189,76.931c0.706,1.058,1.77,1.695,2.92,1.744c0.05,0.002,0.098,0.004,0.146,0.004c1.097,0,2.153-0.537,2.914-1.488   l6.844-8.556c0.55-0.686,0.438-1.688-0.248-2.236c-0.688-0.551-1.688-0.439-2.237,0.247l-6.844,8.558   c-0.148,0.186-0.324,0.303-0.438,0.291c-0.12-0.005-0.277-0.132-0.409-0.33l-2.334-3.502c-0.487-0.73-1.477-0.928-2.207-0.44   c-0.732,0.486-0.93,1.476-0.442,2.207L30.189,76.931z"></path><path d="M49.181,75.226H67.7c0.88,0,1.593-0.712,1.593-1.592s-0.713-1.593-1.593-1.593h-18.52c-0.88,0-1.593,0.713-1.593,1.593   S48.301,75.226,49.181,75.226z"></path><path d="M25.885,95h48.23c6.197,0,11.238-5.042,11.238-11.238V23.474c0-6.197-5.041-11.239-11.238-11.239h-3.238   C70.799,8.233,67.524,5,63.505,5h-27.01c-4.021,0-7.294,3.233-7.372,7.234h-3.238c-6.197,0-11.238,5.042-11.238,11.239v60.288   C14.646,89.958,19.688,95,25.885,95z M32.3,12.38c0-2.313,1.882-4.196,4.195-4.196h27.01c2.313,0,4.195,1.883,4.195,4.196v2.894   c0,2.313-1.882,4.196-4.195,4.196h-27.01c-2.313,0-4.195-1.883-4.195-4.196V12.38z M17.83,23.474c0-4.441,3.613-8.055,8.055-8.055   h3.238c0.078,4.001,3.352,7.234,7.372,7.234h27.01c4.02,0,7.294-3.233,7.372-7.234h3.238c4.442,0,8.055,3.613,8.055,8.055v60.288   c0,4.441-3.612,8.055-8.055,8.055h-48.23c-4.441,0-8.055-3.613-8.055-8.055V23.474z"></path></g></svg>