<svg height='100px' width='100px'  fill="#000000" xmlns="http://www.w3.org/2000/svg" xmlns:xlink="http://www.w3.org/1999/xlink" version="1.1" x="0px" y="0px" viewBox="0 0 68 68" enable-background="new 0 0 68 68" xml:space="preserve"><g><path d="M3.3798928,52.6074219h10.1992188v6.2998047l-2.5117188,1.7026367   c-0.2744141,0.1860352-0.4384766,0.4960938-0.4384766,0.8276367v4c0,0.5522461,0.4472656,1,1,1h5.4902334   c0.2773438,0,0.5419922-0.1152344,0.7314453-0.3183594l2.3125-2.4814453h26.0615253l2.3125,2.4814453   c0.1894531,0.203125,0.4541016,0.3183594,0.7314453,0.3183594h7.1005859c0.5527344,0,1-0.4477539,1-1v-4   c0-0.331543-0.1640625-0.6416016-0.4384766-0.8276367l-2.5117188-1.7026367v-6.2998047h10.2011528c0.5527496,0,1-0.4477539,1-1   V42.1875c0-0.5522461-0.4472504-1-1-1h-5.1200981V23.5576172c0-0.3837891-0.2197266-0.7333984-0.5654297-0.9003906   l-3.5742188-1.7270508v-4.5727539c0-0.5522451-0.4472656-0.999999-1-0.999999c-7.1825485,0-5.619442,0-12.7001953,0v-3.0400391   c0-2.7568359-2.2431641-5-5-5h-1.6601563V2.5625007c0-0.5522461-0.4472656-1-1-1h-9.1123066   c-3.2460938,0-5.8876953,2.6411135-5.8876953,5.8876953c0,3.2460938,2.6416016,5.887207,5.8876953,5.887207h1.4521484v2.0200195   c-7.2023926,0-4.5182114,0-12.70996,0c-0.5527344,0-1,0.4477539-1,0.999999v4.5732422l-3.5654297,1.7270508   c-0.3457031,0.1669922-0.5644531,0.5166016-0.5644531,0.8999023V41.1875H3.3798928c-0.5527344,0-1,0.4477539-1,1v9.4199219   C2.3798928,52.159668,2.8271585,52.6074219,3.3798928,52.6074219z M55.3691521,61.9677734V64.4375h-5.6660156l-2.3125-2.4814453   c-0.5647163-0.6054649,0.4526138-0.2004318-27.6621113-0.3183594c-0.2773438,0-0.5419922,0.1152344-0.7314453,0.3183594   l-2.3125,2.4814453h-4.0556631v-2.4697266l2.5117188-1.7026367c0.2744141-0.1860352,0.4384766-0.4960938,0.4384766-0.8276367   v-6.8300781h36.8398438V59.4375C52.4189568,60.3267059,53.2854996,60.4148636,55.3691521,61.9677734z M53.9257927,22.4580078   l3.5742188,1.7270508v2.0859375h-2.9169922v2h2.9169922V41.1875h-6.1669922V17.3574219h2.0273438v4.2001953   C53.360363,21.9414063,53.5800896,22.2910156,53.9257927,22.4580078z M42.0693474,38.2709961V41.1875h-7.0693359v-2.9165039h-2   V41.1875h-7.0693378v-2.9165039h-2V41.1875h-5.2636719V22.6274414h10.7431641v3.5   c0,0.362793,0.1962891,0.6972656,0.5136719,0.8735352l3.0761738,1.7138062v3.3296509h2v-3.3296509l3.0761719-1.7138062   c0.3173828-0.1762695,0.5136719-0.5107422,0.5136719-0.8735352v-3.5h10.7431641V41.1875h-5.2636719v-2.9165039H42.0693474z    M36.5898552,17.3574219c0,0.2623272,0,8.2836838,0,8.1826172l-2.5898438,1.4428711l-2.5898457-1.4428711   c0-0.110796,0-8.3995113,0-8.1826172H36.5898552z M49.3300896,20.6274414H38.5898552v-3.2700195   c3.828083,0,4.1712303,0,10.7402344,0V20.6274414z M21.0000095,7.4501963c0-2.1435547,1.7441406-3.8876956,3.8876953-3.8876956   h8.1123066v3.7548831h-1.6601582c-2.4212646,0-4.4438477,1.7310791-4.9009399,4.0200195h-1.5512085   C22.7441502,11.3374033,21.0000095,9.593751,21.0000095,7.4501963z M28.3398533,12.3173838c0-1.6542969,1.3457031-3,3-3h5.3203144   c1.6542969,0,3,1.3457031,3,3v3.0400391c-4.1224976,0-9.051466,0-11.3203144,0V12.3173838z M29.4101658,17.3574219v3.2700195   H18.6699314v-3.2700195C25.2378025,17.3574219,25.5400085,17.3574219,29.4101658,17.3574219z M10.5000105,28.2709961h2.9169922v-2   h-2.9169922v-2.0864258l3.5654297-1.7270508c0.3457031-0.1669922,0.5644531-0.5166016,0.5644531-0.8999023v-4.2001953h2.0371084   V41.1875h-6.1669912V28.2709961z M4.3798928,43.1875c27.190588,0,32.1469498,0,59.2402115,0v2.7099609H47.5000114v2h16.1200943   v2.7099609c-11.0794067,0-46.2318954,0-59.2402115,0V43.1875z"></path><path d="M9.523448,45.1855469c-0.9423828,0-1.7089849,0.7680664-1.7089849,1.7119141s0.766602,1.7119141,1.7089849,1.7119141   c0.9443359,0,1.7119141-0.7680664,1.7119141-1.7119141S10.4677839,45.1855469,9.523448,45.1855469z M9.523448,47.1855469   c-0.1591797,0-0.2880859-0.1293945-0.2880859-0.2880859S9.3642683,46.609375,9.523448,46.609375   c0.1601563,0,0.2910156,0.1293945,0.2910156,0.2880859S9.6836042,47.1855469,9.523448,47.1855469z"></path><path d="M15.9804792,48.609375c0.944335,0,1.7119131-0.7680664,1.7119131-1.7119141s-0.7675781-1.7119141-1.7119131-1.7119141   c-0.9414063,0-1.7080078,0.7680664-1.7080078,1.7119141S15.039073,48.609375,15.9804792,48.609375z M15.9804792,46.609375   c0.1611319,0,0.2919912,0.1293945,0.2919912,0.2880859s-0.1308594,0.2880859-0.2919912,0.2880859   c-0.1591797,0-0.2880859-0.1293945-0.2880859-0.2880859S15.8212996,46.609375,15.9804792,46.609375z"></path><path d="M22.4375095,48.609375c0.9443359,0,1.7119141-0.7680664,1.7119141-1.7119141c0-2.2638893-3.4199219-2.2644577-3.4199219,0   C20.7295017,47.8413086,21.4961033,48.609375,22.4375095,48.609375z M22.4375095,46.609375   c0.1611328,0,0.2919922,0.1293945,0.2919922,0.2880859c0,0.1616211-0.1279297,0.2880859-0.2919922,0.2880859   c-0.1591797,0-0.2880859-0.1293945-0.2880859-0.2880859S22.2783298,46.609375,22.4375095,46.609375z"></path><rect x="33" y="20.2841797" width="2" height="3.9165039"></rect><rect x="19" y="54.9912109" width="2" height="3.53125"></rect><rect x="22.4375" y="54.9912109" width="2" height="3.53125"></rect><rect x="25.875" y="54.9912109" width="2" height="3.53125"></rect></g></svg>