<svg height='100px' width='100px'  fill="#000000" xmlns="http://www.w3.org/2000/svg" xmlns:xlink="http://www.w3.org/1999/xlink" version="1.1" x="0px" y="0px" viewBox="0 0 120 120" style="enable-background:new 0 0 120 120;" xml:space="preserve"><path d="M103.4,80.7l-10.3-6.1l9.5-2.5c1.3-0.2,1.7-1.3,1.5-2.5l-1-4c-0.2-1.3-1.3-1.7-2.5-1.5l-17.3,4.5l-15-8.9l14.9-8.8l17.4,4.6  c1.3,0.4,2.3-0.2,2.5-1.5l1-4c0.4-1.3-0.2-2.3-1.5-2.5L93,45.2l10.3-6.1c1.3-0.6,1.5-1.9,0.8-2.9l-2.1-3.8c-0.6-1.3-1.9-1.5-2.9-0.8  l-10.1,6l2.4-9.1c0.4-1.3-0.2-2.3-1.5-2.5l-4-1c-1.3-0.4-2.3,0.2-2.5,1.5l-4.3,17l-14.9,8.8V35.4l12.7-12.7c0.8-0.8,0.8-2.1,0-2.9  L74,16.8c-0.8-0.8-2.1-0.8-2.9,0l-6.9,6.9V12c0-1.3-0.8-2.1-2.1-2.1h-4.2c-1.3,0-2.1,0.8-2.1,2.1v11.7l-6.9-6.9  c-0.8-0.8-2.1-0.8-2.9,0l-2.9,2.9c-0.8,0.8-0.8,2.1,0,2.9l12.7,12.7v17.1l-14.9-8.8l-4.5-17.2c-0.2-1.3-1.3-1.7-2.5-1.5l-4,1  c-1.3,0.2-1.7,1.3-1.5,2.5l2.4,9.2L21,31.9c-1-0.6-2.3-0.2-2.9,0.8l-2.3,3.5c-0.6,1-0.2,2.3,0.8,2.9l10.2,6.1l-9.6,2.5  c-1.3,0.2-1.7,1.3-1.5,2.5l1,4c0.2,1.3,1.3,1.7,2.5,1.5l17.5-4.6l14.7,8.7l-15,8.9l-17-4.5c-1.3-0.4-2.3,0.2-2.5,1.5l-1,4  c-0.4,1.3,0.2,2.3,1.5,2.5l9.2,2.4l-10,6c-1.3,0.6-1.5,1.9-0.8,2.9l2.1,3.5c0.6,1.3,1.9,1.5,2.9,0.8l10.5-6.2l-2.5,9.7  c-0.4,1.3,0.2,2.3,1.5,2.5l4,1c1.3,0.4,2.3-0.2,2.5-1.5l4.4-17.6l14.8-8.7v17.3L43.1,97.2c-0.8,0.8-0.8,2.1,0,2.9l2.9,2.9  c0.8,0.8,2.1,0.8,2.9,0l6.9-6.9v11.7c0,1.3,0.8,2.1,2.1,2.1h4.2c1.3,0,2.1-0.8,2.1-2.1V96.2l6.9,6.9c0.8,0.8,2.1,0.8,2.9,0l2.9-2.9  c0.8-0.8,0.8-2.1,0-2.9L64.2,84.5V67.3L78.8,76l4.6,17.5c0.2,1.3,1.3,1.7,2.5,1.5l4-1c1.3-0.2,1.7-1.3,1.5-2.5l-2.5-9.5L99.3,88  c1,0.6,2.3,0.2,2.9-0.8l2.1-3.5C104.9,82.6,104.5,81.3,103.4,80.7z"></path></svg>