<svg height='100px' width='100px'  fill="#000000" xmlns="http://www.w3.org/2000/svg" xmlns:xlink="http://www.w3.org/1999/xlink" version="1.1" x="0px" y="0px" viewBox="0 0 100 100" style="enable-background:new 0 0 100 100;" xml:space="preserve"><path d="M84.1,12.1c-7.5,0-13.6,6.1-13.6,13.6c0,1.6,0.6,3.9,1.8,6.7c1,2.4,2.5,5.3,4.4,8.7c3,5.2,6,9.7,6,9.8  c0.3,0.5,0.8,0.7,1.4,0.7s1.1-0.3,1.4-0.7c0,0,3-4.5,6-9.8c1.9-3.4,3.4-6.3,4.4-8.7c1.2-2.8,1.8-5,1.8-6.7  C97.7,18.2,91.6,12.1,84.1,12.1z M93,30.8c-0.9,2.3-2.2,4.8-3.6,7.4c-1.8,3.2-3.7,6.3-5.2,8.7c-1.1-1.8-2.8-4.5-4.5-7.5  c-0.2-0.4-0.5-0.8-0.7-1.2c-1.7-3.1-2.8-5.5-3.6-7.3c-1.1-2.7-1.4-4.2-1.4-5.1c0-0.1,0-0.1,0-0.2c0-5.7,4.6-10.3,10.3-10.3  c5.7,0,10.3,4.6,10.3,10.3C94.4,26.9,93.8,28.8,93,30.8z"></path><g><path d="M84.1,20c3.1,0,5.6,2.5,5.6,5.6s-2.5,5.6-5.6,5.6s-5.6-2.5-5.6-5.6S81,20,84.1,20 M84.1,18.1c-4.2,0-7.6,3.4-7.6,7.6   s3.4,7.6,7.6,7.6s7.6-3.4,7.6-7.6S88.3,18.1,84.1,18.1L84.1,18.1z"></path></g><g><path d="M86.7,51.7c-0.6,0.9-1.6,1.4-2.6,1.4c-1.1,0-2-0.5-2.6-1.4c0,0-0.7-1-1.7-2.6H67.7c-0.2-4.8-1.1-9.4-2.5-13.8H72   c-0.4-0.8-0.7-1.6-1.1-2.4c-0.3-0.6-0.5-1.3-0.7-1.8h-6.6c-2.3-5.2-5.5-10-9.5-14.2c5.6,1.2,10.7,3.8,15,7.4   c0.2-2.1,0.8-4.1,1.8-5.9c-6.8-5-15.3-8-24.4-8c-22.6,0-41.1,18.4-41.1,41.1c0,22.6,18.4,41.1,41.1,41.1   c22.6,0,41.1-18.4,41.1-41.1c0-0.3,0-0.7,0-1C87.1,51.2,86.8,51.7,86.7,51.7z M39,16.9c-4,4.2-7.2,9-9.5,14.2H17.7   C22.7,24,30.3,18.8,39,16.9z M15.1,35.3h12.8c-1.5,4.4-2.3,9.1-2.5,13.8H11.3C11.6,44.2,13,39.5,15.1,35.3z M15,67.3   c-2.1-4.2-3.4-8.9-3.7-13.9h14.1c0.2,4.8,1.1,9.4,2.6,13.8H15.3C15.2,67.2,15.1,67.3,15,67.3z M17.5,71.4h12.1   c2.4,5.4,5.7,10.3,9.9,14.5C30.4,84.1,22.6,78.8,17.5,71.4z M44.3,84.7c-4.2-3.8-7.6-8.3-10-13.3h10V84.7z M44.3,67.2H32.5   c-1.6-4.4-2.6-9-2.8-13.8h14.6V67.2z M44.3,49.1H29.7c0.2-4.8,1.2-9.5,2.8-13.8h11.9V49.1z M44.3,31.1H34.3   c2.5-5,5.8-9.5,10.1-13.4V31.1z M48.8,17.7c4.2,3.9,7.6,8.4,10.1,13.4H48.8V17.7z M48.8,35.3h11.9c1.6,4.4,2.6,9,2.8,13.8H48.8   V35.3z M48.8,53.4h14.6c-0.2,4.8-1.2,9.5-2.8,13.8H48.8V53.4z M48.8,84.7V71.4h10C56.4,76.4,53,80.9,48.8,84.7z M53.7,86   c4.2-4.3,7.5-9.2,9.9-14.5h12.1C70.5,78.8,62.7,84.1,53.7,86z M78.1,67.2H65.2c1.5-4.4,2.4-9.1,2.6-13.8h14.1   C81.5,58.4,80.2,63,78.1,67.2z"></path></g></svg>