<svg height='100px' width='100px'  fill="#000000" xmlns="http://www.w3.org/2000/svg" xmlns:xlink="http://www.w3.org/1999/xlink" version="1.1" x="0px" y="0px" viewBox="0 0 100 100" style="enable-background:new 0 0 100 100;" xml:space="preserve"><g><path d="M87.5,11.5h-75c-0.5527344,0-1,0.4477539-1,1v75c0,0.5522461,0.4472656,1,1,1h75c0.5527344,0,1-0.4477539,1-1v-75   C88.5,11.9477539,88.0527344,11.5,87.5,11.5z M86.5,19.3725586H68.0898438c-0.5527344,0-1,0.4477539-1,1v12.4614258h-9.8513794   c-0.4525146-1.8574219-2.1187134-3.2451172-4.1134644-3.2451172c-2.3408203,0-4.2451172,1.9042969-4.2451172,4.2451172   s1.9042969,4.2451172,4.2451172,4.2451172c1.994751,0,3.6609497-1.3876953,4.1134644-3.2451172h10.8513794   c0.5527344,0,1-0.4477539,1-1V21.3725586H86.5V86.5H61.3564453V72.394043h12.421875c0.5527344,0,1-0.4477539,1-1v-16.43927   c1.8574219-0.4525146,3.2451172-2.1187134,3.2451172-4.1134644c0-2.3408203-1.9042969-4.2451172-4.2451172-4.2451172   s-4.2460938,1.9042969-4.2460938,4.2451172c0,1.994751,1.3884277,3.6610107,3.2460938,4.1134644v15.43927h-12.421875   c-0.5527344,0-1,0.4477539-1,1V86.5H13.5v-4.0576172h18.4101563c0.5527344,0,1-0.4477539,1-1V68.980957h9.8513794   c0.4525146,1.8574219,2.1187134,3.2451172,4.1134644,3.2451172c2.3408203,0,4.2451172-1.9042969,4.2451172-4.2451172   S49.2158203,63.7353516,46.875,63.7353516c-1.994751,0-3.6609497,1.3880615-4.1134644,3.2456055H31.9101563   c-0.5527344,0-1,0.4477539-1,1v12.4614258H13.5V13.5h23.1279297v14.105957H24.2070313c-0.5527344,0-1,0.4477539-1,1v16.43927   c-1.8574219,0.4525146-3.2451172,2.1187134-3.2451172,4.1134644c0,2.3408203,1.9042969,4.2451172,4.2451172,4.2451172   s4.2451172-1.9042969,4.2451172-4.2451172c0-1.994751-1.3876953-3.6609497-3.2451172-4.1134644v-15.43927h12.4208984   c0.5527344,0,1-0.4477539,1-1V13.5H86.5V19.3725586z M55.3701172,33.8339844c0,1.237793-1.0068359,2.2451172-2.2451172,2.2451172   s-2.2451172-1.0073242-2.2451172-2.2451172s1.0068359-2.2451172,2.2451172-2.2451172S55.3701172,32.5961914,55.3701172,33.8339844z    M71.5322266,50.8413086c0-1.237793,1.0078125-2.2451172,2.2460938-2.2451172s2.2451172,1.0073242,2.2451172,2.2451172   s-1.0068359,2.2451172-2.2451172,2.2451172S71.5322266,52.0791016,71.5322266,50.8413086z M44.6298828,67.980957   c0-1.2382813,1.0068359-2.2456055,2.2451172-2.2456055s2.2451172,1.0073242,2.2451172,2.2456055   c0,1.237793-1.0068359,2.2451172-2.2451172,2.2451172S44.6298828,69.21875,44.6298828,67.980957z M26.4521484,49.1586914   c0,1.237793-1.0068359,2.2451172-2.2451172,2.2451172s-2.2451172-1.0073242-2.2451172-2.2451172   s1.0068359-2.2451172,2.2451172-2.2451172S26.4521484,47.9208984,26.4521484,49.1586914z"></path><path d="M50.1201172,57.25c3.9980469,0,7.25-3.2524414,7.25-7.25s-3.2519531-7.25-7.25-7.25s-7.25,3.2524414-7.25,7.25   S46.1220703,57.25,50.1201172,57.25z M50.1201172,44.75c2.8945313,0,5.25,2.3549805,5.25,5.25s-2.3554688,5.25-5.25,5.25   s-5.25-2.3549805-5.25-5.25S47.2255859,44.75,50.1201172,44.75z"></path></g></svg>