<svg height='100px' width='100px'  fill="#000000" xmlns:dc="http://purl.org/dc/elements/1.1/" xmlns:cc="http://creativecommons.org/ns#" xmlns:rdf="http://www.w3.org/1999/02/22-rdf-syntax-ns#" xmlns:svg="http://www.w3.org/2000/svg" xmlns="http://www.w3.org/2000/svg" xmlns:sodipodi="http://sodipodi.sourceforge.net/DTD/sodipodi-0.dtd" xmlns:inkscape="http://www.inkscape.org/namespaces/inkscape" version="1.1" x="0px" y="0px" viewBox="0 0 100 100"><g transform="translate(0,-952.36218)"><path style="text-indent:0;text-transform:none;direction:ltr;block-progression:tb;baseline-shift:baseline;color:#000000;enable-background:accumulate;" d="m 61.009623,953.29297 c -0.906951,-0.52352 -2.208379,-0.17478 -2.73205,0.73204 l -46.000019,79.67439 c -0.523502,0.9069 -0.174786,2.2083 0.732048,2.7321 l 25.980781,14.9999 c 0.906936,0.5236 2.208358,0.1748 2.732047,-0.732 l 46.000006,-79.67438 c 0.5235,-0.90693 0.174802,-2.20837 -0.732051,-2.73205 z m -0.267949,4.4641 22.516662,12.99999 -44.000015,76.21024 -22.516659,-13 3.000012,-5.1962 12.124347,7.0001 c 0.956609,0.5523 2.179763,0.2245 2.732047,-0.7321 0.55231,-0.9566 0.224561,-2.1797 -0.732048,-2.732 l -12.124347,-7.0001 2.499992,-4.3301 6.928191,4.0001 c 0.956636,0.5522 2.179763,0.2245 2.732074,-0.7322 0.552283,-0.9565 0.224561,-2.1797 -0.732075,-2.7319 l -6.92819,-4.0001 2.499992,-4.3301 6.928216,4 c 0.95661,0.5523 2.179738,0.2246 2.732048,-0.7321 0.55231,-0.9566 0.224561,-2.1797 -0.732048,-2.732 l -6.928217,-4 2.500018,-4.3302 6.928192,4.0001 c 0.956608,0.5523 2.179763,0.2245 2.732047,-0.732 0.552309,-0.9567 0.224561,-2.1798 -0.732049,-2.7321 l -6.928191,-4.0001 2.499993,-4.33005 12.124347,7.00005 c 0.95661,0.5523 2.179763,0.2245 2.732047,-0.7321 0.55231,-0.9566 0.224562,-2.1797 -0.732048,-2.732 l -12.124347,-7.00005 2.500006,-4.33014 6.928203,4 c 0.95661,0.55231 2.17975,0.22456 2.73205,-0.73205 0.552299,-0.95661 0.224561,-2.17975 -0.732051,-2.73205 l -6.928203,-4 2.5,-4.33013 6.928204,4 c 0.956611,0.5523 2.17975,0.22457 2.732049,-0.73205 0.5523,-0.95661 0.224561,-2.17975 -0.73205,-2.73205 l -6.928204,-3.99999 2.5,-4.33013 6.928204,4 c 0.956612,0.55229 2.17975,0.22456 2.73205,-0.73205 0.552302,-0.95662 0.224561,-2.17975 -0.732051,-2.73205 l -6.928201,-4.00001 2.5,-4.33013 12.124355,7.00001 c 0.956612,0.55229 2.179751,0.22456 2.73205,-0.73205 0.5523,-0.95661 0.224561,-2.17975 -0.73205,-2.73205 L 57.74167,962.95322 z" fill="#000000" fill-opacity="1" stroke="none" marker="none" visibility="visible" display="inline" overflow="visible"></path></g></svg>