<svg height='100px' width='100px'  fill="#000000" xmlns="http://www.w3.org/2000/svg" xmlns:xlink="http://www.w3.org/1999/xlink" version="1.1" x="0px" y="0px" viewBox="0 0 100 100" style="enable-background:new 0 0 100 100;" xml:space="preserve"><path d="M71.6,58.86c0-0.83-0.67-1.5-1.5-1.5h-9.5l-6.13-22.55c3.96-1.73,6.73-5.67,6.73-10.26c0-5.66-4.23-10.35-9.69-11.08V5.03  c0-0.83-0.67-1.5-1.5-1.5s-1.5,0.67-1.5,1.5v8.44c-5.46,0.74-9.69,5.42-9.69,11.08c0,4.63,2.82,8.61,6.84,10.31l-6.12,22.5H29.9  c-0.83,0-1.5,0.67-1.5,1.5s0.67,1.5,1.5,1.5h8.8L29.4,94.61c-0.22,0.8,0.25,1.62,1.05,1.84c0.13,0.04,0.26,0.05,0.39,0.05  c0.66,0,1.27-0.44,1.45-1.11l9.53-35.03h6.68v2.99c0,0.83,0.67,1.5,1.5,1.5s1.5-0.67,1.5-1.5v-2.99h6.8l9.53,35.03  c0.18,0.67,0.79,1.11,1.45,1.11c0.13,0,0.26-0.02,0.39-0.05c0.8-0.22,1.27-1.04,1.05-1.84l-9.31-34.25h8.69  C70.92,60.36,71.6,59.69,71.6,58.86z M41.81,24.55c0-4.52,3.68-8.2,8.19-8.2s8.19,3.68,8.19,8.2c0,4.52-3.68,8.19-8.19,8.19  S41.81,29.07,41.81,24.55z M51.5,57.36v-2.99c0-0.83-0.67-1.5-1.5-1.5s-1.5,0.67-1.5,1.5v2.99h-5.87l5.91-21.72  c0.48,0.06,0.96,0.11,1.46,0.11c0.54,0,1.06-0.05,1.57-0.12l5.91,21.74H51.5z"></path></svg>