<svg height='100px' width='100px'  fill="#000000" xmlns="http://www.w3.org/2000/svg" viewBox="0 0 64 64" x="0px" y="0px"><g><path d="M9,20H33a1,1,0,0,0,1-1V11a1,1,0,0,0-1-1H9a1,1,0,0,0-1,1v8A1,1,0,0,0,9,20Zm1-8H32v6H10Z"></path><rect x="8" y="6" width="2" height="2"></rect><rect x="12" y="6" width="2" height="2"></rect><rect x="20" y="23" width="2" height="3"></rect><rect x="9" y="34" width="3" height="2"></rect><rect x="30" y="34" width="3" height="2"></rect><rect x="20" y="44" width="2" height="3"></rect><path d="M11,48a3,3,0,1,0,3,3A3,3,0,0,0,11,48Zm0,4a1,1,0,1,1,1-1A1,1,0,0,1,11,52Z"></path><path d="M19,48a3,3,0,1,0,3,3A3,3,0,0,0,19,48Zm0,4a1,1,0,1,1,1-1A1,1,0,0,1,19,52Z"></path><path d="M28,35a7,7,0,1,0-7,7A7.009,7.009,0,0,0,28,35ZM18,38.974a4.948,4.948,0,0,1,0-7.948Zm4,.925a5,5,0,0,1-2,0V30.1a5,5,0,0,1,2,0Zm2-.925V31.026a4.948,4.948,0,0,1,0,7.948Z"></path><rect x="14" y="24.586" width="2" height="2.828" transform="translate(-13.991 18.222) rotate(-45)"></rect><rect x="10.5" y="28.197" width="2" height="3.606" transform="translate(-19.841 22.928) rotate(-56.31)"></rect><rect x="25.586" y="25" width="2.828" height="2" transform="translate(-10.477 26.707) rotate(-45)"></rect><rect x="28.697" y="29" width="3.606" height="2" transform="translate(-11.519 21.957) rotate(-33.69)"></rect><rect x="13.586" y="42" width="2.828" height="2" transform="translate(-26.012 23.201) rotate(-45)"></rect><rect x="9.697" y="38" width="3.606" height="2" transform="translate(-19.702 12.929) rotate(-33.69)"></rect><rect x="26" y="41.586" width="2" height="2.828" transform="translate(-22.497 31.686) rotate(-45)"></rect><rect x="29.5" y="37.197" width="2" height="3.606" transform="matrix(0.555, -0.832, 0.832, 0.555, -18.868, 42.744)"></rect><rect x="8" y="22" width="4" height="2"></rect><rect x="30" y="22" width="4" height="2"></rect><path d="M59,22H57.883l-.891-7.124A1,1,0,0,0,56,14V10H54v4a1,1,0,0,0-.992.876L52.117,22H51a1,1,0,0,0-1,1v4a1,1,0,0,0,1,1h1V46a.969.969,0,0,0,.01.142l1,7A1,1,0,0,0,54,54v5a1,1,0,0,1-1,1H44.974A4.948,4.948,0,0,0,46,57V47a1,1,0,0,0,.99-.858l1-7A.969.969,0,0,0,48,39V21h1a1,1,0,0,0,1-1V16a1,1,0,0,0-1-1H47.883l-.891-7.124A1,1,0,0,0,46,7V3H44V7a1,1,0,0,0-.992.876L42.117,15H41a1,1,0,0,0-1,1v4a1,1,0,0,0,1,1h1V39a.969.969,0,0,0,.01.142l1,7A1,1,0,0,0,44,47V57a3,3,0,0,1-3,3H34a2,2,0,0,1-2-2h3a3,3,0,0,0,3-3V5a3,3,0,0,0-3-3H7A3,3,0,0,0,4,5V55a3,3,0,0,0,3,3H26v1a3,3,0,0,0,3,3H53a3,3,0,0,0,3-3V54a1,1,0,0,0,.99-.858l1-7A.969.969,0,0,0,58,46V28h1a1,1,0,0,0,1-1V23A1,1,0,0,0,59,22ZM32,56H30V50h2ZM22,4H32V6H22Zm3,44a1,1,0,0,0-1,1v7H7a1,1,0,0,1-1-1V5A1,1,0,0,1,7,4H20V7a1,1,0,0,0,1,1H33a1,1,0,0,0,1-1V4h1a1,1,0,0,1,1,1V55a1,1,0,0,1-1,1H34V49a1,1,0,0,0-1-1Zm1,8V50h2v6Zm3,4a1,1,0,0,1-1-1V58h2a3.959,3.959,0,0,0,.556,2ZM44.883,9h.234l.75,6H44.133ZM42,19V17h6v2Zm2,19.929V21h2V38.929L45.133,45h-.266ZM54.883,16h.234l.75,6H54.133ZM56,45.929,55.133,52h-.266L54,45.929V28h2ZM58,26H52V24h6Z"></path></g></svg>