<svg height='100px' width='100px'  fill="#000000" xmlns:dc="http://purl.org/dc/elements/1.1/" xmlns:cc="http://creativecommons.org/ns#" xmlns:rdf="http://www.w3.org/1999/02/22-rdf-syntax-ns#" xmlns:svg="http://www.w3.org/2000/svg" xmlns="http://www.w3.org/2000/svg" xmlns:sodipodi="http://sodipodi.sourceforge.net/DTD/sodipodi-0.dtd" xmlns:inkscape="http://www.inkscape.org/namespaces/inkscape" viewBox="0 0 12.7 12.7" version="1.1" x="0px" y="0px"><g transform="translate(0,-284.29998)"><path style="" d="m 4.4898666,284.82916 c -0.036491,0 -0.066151,0.0296 -0.066151,0.0661 v 0.85214 c -0.061595,0.028 -0.1229254,0.058 -0.18034,0.094 -0.01905,0.0119 -0.030506,0.0331 -0.030506,0.0558 v 0.15916 h -0.07284 c -0.023548,0 -0.045773,0.0124 -0.057362,0.0331 l -0.065114,0.11214 c -0.00609,0.0101 -0.00873,0.0214 -0.00873,0.0331 v 0.41393 c -2.65e-5,10e-4 0,0.002 0,0.003 0,5.3e-4 0,5.3e-4 0,10e-4 v 0.35089 c -2.65e-5,5.2e-4 0,5.2e-4 0,0.001 0,10e-4 0,0.002 0,0.004 v 0.34571 c -2.65e-5,0.001 0,0.002 0,0.004 0,5.3e-4 0,5.3e-4 0,0.001 v 0.063 c 0,0.0116 0.00265,0.023 0.00873,0.0331 l 0.065114,0.11266 c 0.011642,0.0206 0.033761,0.0331 0.057362,0.0331 h 0.07284 v 0.10594 H 1.9003578 c -0.01773,0 -0.03411,0.007 -0.04651,0.0191 l -0.143642,0.14366 c -0.01243,0.0124 -0.01958,0.0296 -0.01958,0.047 v 5.46685 c 0,0.0177 0.0071,0.0341 0.01958,0.0465 l 0.143642,0.14366 c 0.01244,0.0124 0.02902,0.0196 0.04651,0.0196 H 4.212869 v 0.10542 h -0.07284 c -0.023548,0 -0.045773,0.0124 -0.057362,0.0331 l -0.065114,0.11265 c -0.00609,0.0101 -0.00873,0.0214 -0.00873,0.0331 v 0.0625 c -2.65e-5,5.3e-4 0,5.3e-4 0,10e-4 0,10e-4 0,0.002 0,0.004 v 0.34571 c -2.65e-5,10e-4 0,0.002 0,0.004 0,5.3e-4 0,5.3e-4 0,0.001 v 0.70177 c -2.65e-5,10e-4 0,0.002 0,0.003 0,5.3e-4 0,5.3e-4 0,10e-4 v 0.0636 c 0,0.0116 0.00265,0.023 0.00873,0.0331 l 0.065114,0.11213 c 0.011642,0.0206 0.033761,0.0331 0.057362,0.0331 h 0.07284 v 0.15917 c 0,0.0228 0.011642,0.0436 0.031009,0.0558 0.057388,0.0362 0.118401,0.0661 0.1798373,0.094 v 0.85215 c 0,0.0365 0.02966,0.0661 0.066151,0.0661 h 1.2944951 c 0.036499,0 0.066146,-0.0296 0.066146,-0.0661 v -11.50922 c 0,-0.0365 -0.029647,-0.0661 -0.066146,-0.0661 z m 1.5053337,0 c -0.036499,0 -0.066146,0.0296 -0.066146,0.0661 v 11.50834 c 0,0.0365 0.029647,0.0661 0.066146,0.0661 h 1.295011 c 0.036502,0 0.066146,-0.0296 0.066146,-0.0661 v -1.09399 H 7.505704 c 0.036499,0 0.066146,-0.0296 0.066146,-0.0661 v -0.001 h 0.4444153 c 0.023813,0 0.045244,-0.0124 0.056846,-0.0331 l 0.065111,-0.11265 c 0.00601,-0.0101 0.00878,-0.0214 0.00878,-0.0331 v -0.41392 c 1.06e-5,-0.001 5.292e-4,-0.002 5.292e-4,-0.003 0,-5.3e-4 -5.292e-4,-5.3e-4 -5.292e-4,-0.001 v -0.76894 c 0,-0.0116 -0.00278,-0.023 -0.00878,-0.0331 l -0.065111,-0.11214 c -0.011615,-0.0204 -0.033245,-0.0331 -0.056846,-0.0331 H 7.5718497 v -0.002 c 0,-0.0365 -0.029647,-0.0661 -0.066146,-0.0661 h -0.133326 c 0.013758,-0.0215 0.033986,-0.0382 0.061494,-0.0382 H 10.79956 c 0.0177,0 0.03411,-0.007 0.04651,-0.0191 l 0.144177,-0.14348 c 0.0123,-0.0124 0.01913,-0.0296 0.01913,-0.047 v -5.46685 c 0,-0.0177 -0.0067,-0.0341 -0.01913,-0.0465 l -0.144177,-0.14366 c -0.01241,-0.0124 -0.02901,-0.0196 -0.04651,-0.0196 H 7.4338721 c -0.027487,0 -0.047725,-0.0165 -0.061494,-0.0382 h 0.1333262 c 0.036499,0 0.066146,-0.0296 0.066146,-0.0661 v -0.001 h 0.4444153 c 0.023813,0 0.045244,-0.0129 0.056846,-0.0336 l 0.065111,-0.11214 c 0.00601,-0.01 0.00878,-0.0214 0.00878,-0.0331 v -0.41393 c 1.06e-5,-0.001 5.292e-4,-0.002 5.292e-4,-0.003 0,-5.3e-4 -5.292e-4,-5.3e-4 -5.292e-4,-0.001 v -0.76895 c 0,-0.0116 -0.00278,-0.023 -0.00878,-0.0331 l -0.065111,-0.11265 c -0.011615,-0.0204 -0.033245,-0.0331 -0.056846,-0.0331 H 7.5718497 v -0.001 c 0,-0.0365 -0.029647,-0.0661 -0.066146,-0.0661 H 7.3563572 v -1.09347 c 0,-0.0365 -0.029644,-0.0661 -0.066146,-0.0661 z m -1.4391879,0.13229 H 5.7182159 V 296.3375 H 4.5560124 Z m 1.5053337,0 H 7.2240655 V 296.3375 H 6.0613461 Z m -1.6376306,0.93328 v 1.86707 c -0.026458,-0.0134 -0.053287,-0.025 -0.079058,-0.0403 v -0.18603 c 0,-5.3e-4 0,-5.3e-4 0,-10e-4 0,-5.3e-4 0,-5.3e-4 0,-10e-4 v -0.35089 c 0,-5.3e-4 0,-5.3e-4 0,-10e-4 0,-5.3e-4 0,-5.3e-4 0,-10e-4 v -0.70384 c 0,-5.3e-4 0,-5.3e-4 0,-0.001 0,-5.3e-4 0,-5.3e-4 0,-10e-4 v -0.35089 c 0,-5.2e-4 0,-5.2e-4 0,-10e-4 0,-5.3e-4 0,-5.3e-4 0,-0.001 v -0.18759 c 0.0254,-0.0151 0.052784,-0.0259 0.079058,-0.0393 z m 2.9326417,0.22634 h 0.083201 v 1.41439 h -0.083201 z m 0.2154925,0.0672 h 0.4061751 l 0.03669,0.0641 v 0.0465 c 0,0.0392 -0.01061,0.0778 -0.031523,0.11059 H 7.5718497 Z m -3.3935882,5.3e-4 h 0.034607 v 0.22066 h -0.039766 c -0.021167,-0.0328 -0.032041,-0.0714 -0.032041,-0.11059 v -0.046 z m -0.00265,0.35295 h 0.036671 v 0.57361 h -0.036169 c -0.020902,-0.0323 -0.035057,-0.0687 -0.035639,-0.10749 v -0.35863 c 0,-0.0388 0.014023,-0.0752 0.035137,-0.10749 z m 3.3956519,0 h 0.4072138 c 0.020982,0.0324 0.035147,0.0686 0.035655,0.10749 v 0.35863 c -5.292e-4,0.0388 -0.014182,0.0753 -0.035139,0.10749 H 7.5712676 Z m -3.3951492,0.7059 h 0.036169 v 0.22066 h -0.034607 l -0.0372,-0.0641 v -0.0491 c 0,-0.0389 0.014552,-0.075 0.035639,-0.10749 z m 3.3951492,0 h 0.4113424 c 0.020241,0.0318 0.030848,0.0686 0.031523,0.10645 v 0.0501 l -0.03669,0.0641 H 7.5712676 Z m -0.2154925,0.57516 c 0.024051,0.01 0.050027,0.0155 0.077515,0.0155 h 3.3383021 l 0.104902,0.10542 v 5.41155 l -0.104902,0.10542 H 7.4332901 c -0.027419,0 -0.053475,0.005 -0.077515,0.015 v -0.40463 h 0.1493467 c 0.036499,0 0.066146,-0.0294 0.066146,-0.0661 v -0.001 h 0.4444153 c 0.023813,0 0.045461,-0.0122 0.057362,-0.0331 l 0.065111,-0.11265 c 0.00601,-0.0101 0.00878,-0.0214 0.00878,-0.0331 v -1.1865 c 0,-0.0116 -0.00278,-0.023 -0.00878,-0.0331 l -0.065111,-0.11265 c -0.011906,-0.0204 -0.033761,-0.0331 -0.057362,-0.0331 H 7.5712676 v -10e-4 c 0,-0.0365 -0.029647,-0.0661 -0.066146,-0.0661 H 7.3557751 v -1.48673 h 0.1493467 c 0.036499,0 0.066146,-0.0294 0.066146,-0.0661 v -10e-4 h 0.4444153 c 0.023813,0 0.045461,-0.0124 0.057362,-0.0331 l 0.065111,-0.11265 c 0.00601,-0.0101 0.00878,-0.0214 0.00878,-0.0331 v -1.18649 c 0,-0.0116 -0.00278,-0.023 -0.00878,-0.0331 l -0.065111,-0.11266 c -0.011906,-0.0204 -0.033761,-0.0331 -0.057362,-0.0331 H 7.5712676 v -0.001 c 0,-0.0365 -0.029647,-0.0661 -0.066146,-0.0661 H 7.3557751 Z m -5.4286151,0.016 H 4.280523 c 0.046249,0.0273 0.094615,0.0495 0.1426104,0.0713 v 0.0755 c -0.061463,0.0281 -0.1226873,0.0575 -0.1798373,0.0935 -0.019315,0.0119 -0.031009,0.0331 -0.031009,0.0558 v 0.15969 h -0.07284 c -0.023548,0 -0.045773,0.0124 -0.057362,0.0331 l -0.065114,0.11265 c -0.00609,0.0101 -0.00873,0.0214 -0.00873,0.0331 v 0.063 c -2.65e-5,5.3e-4 0,5.3e-4 0,10e-4 0,0.001 0,0.002 0,0.003 v 0.34621 c -2.65e-5,10e-4 0,0.002 0,0.003 0,5.3e-4 0,5.3e-4 0,0.001 v 0.70228 c -2.65e-5,10e-4 0,0.002 0,0.003 0,5.3e-4 0,5.3e-4 0,0.001 v 0.063 c 0,0.0116 0.00265,0.023 0.00873,0.0331 l 0.065114,0.11214 c 0.011642,0.0206 0.033761,0.0331 0.057362,0.0331 h 0.07284 v 0.15917 c 0,0.0227 0.011642,0.0436 0.031009,0.0558 0.05715,0.0362 0.1182688,0.0655 0.1798373,0.0935 v 1.00407 c -0.061913,0.0282 -0.1235869,0.0577 -0.18034,0.0935 -0.01905,0.0119 -0.030506,0.0331 -0.030506,0.0558 v 0.15916 h -0.07284 c -0.023548,0 -0.045773,0.0124 -0.057362,0.0331 l -0.065114,0.11265 c -0.00609,0.0101 -0.00873,0.0214 -0.00873,0.0331 v 0.063 c -2.65e-5,5.3e-4 0,5.3e-4 0,0.001 0,10e-4 0,0.002 0,0.003 v 0.34675 c -2.65e-5,0.001 0,0.002 0,0.003 0,5.2e-4 0,5.2e-4 0,10e-4 v 0.35089 c -2.65e-5,5.3e-4 0,5.3e-4 0,0.001 0,10e-4 0,0.002 0,0.004 v 0.34571 c -2.65e-5,0.001 0,0.002 0,0.004 0,5.3e-4 0,5.3e-4 0,10e-4 v 0.0625 c 0,0.0116 0.00265,0.023 0.00873,0.0331 l 0.065114,0.11265 c 0.011642,0.0206 0.033761,0.0331 0.057362,0.0331 h 0.07284 v 0.15968 c 0,0.0227 0.011377,0.0436 0.030506,0.0558 0.05715,0.036 0.1186127,0.0655 0.18034,0.0935 v 0.0765 c -0.047784,0.0218 -0.094483,0.0466 -0.140044,0.0734 -0.00265,-1.5e-4 -0.00291,-0.002 -0.00476,-0.002 H 1.9270538 l -0.104907,-0.10491 v -5.41207 z m 2.4959734,0.29352 v 1.8681 c -0.026194,-0.0134 -0.053658,-0.0247 -0.079058,-0.0398 v -0.18707 c 0,-5.3e-4 0,-5.3e-4 0,-10e-4 0,-5.3e-4 0,-5.3e-4 0,-10e-4 v -0.35089 c 0,-5.2e-4 0,-5.2e-4 0,-10e-4 0,-5.3e-4 0,-5.3e-4 0,-10e-4 v -1.05679 c 0,-5.3e-4 0,-5.3e-4 0,-10e-4 0,-5.3e-4 0,-5.3e-4 0,-0.001 v -0.18759 c 0.0254,-0.0151 0.052758,-0.0264 0.079058,-0.0398 z m 2.9326417,0.22738 h 0.083201 v 1.41386 h -0.083201 z m -3.1780957,0.0672 h 0.034607 v 0.22065 h -0.036671 c -0.020902,-0.0323 -0.034634,-0.0686 -0.035137,-0.10748 v -0.0491 z m 3.3935882,0 h 0.4061751 l 0.03669,0.0641 v 0.0491 c -5.292e-4,0.0389 -0.014684,0.0752 -0.035655,0.10748 H 7.5712676 Z m -3.3992767,0.35243 h 0.040296 v 0.57412 h -0.039767 c -0.021167,-0.0331 -0.032041,-0.0709 -0.032041,-0.11006 v -0.35709 c 0,-0.0376 0.011377,-0.0749 0.031512,-0.10697 z m 3.3992767,5.3e-4 h 0.4072138 c 0.020982,0.0324 0.035147,0.0686 0.035655,0.10749 v 0.35605 c 0,0.0392 -0.01061,0.0773 -0.031523,0.11007 H 7.5712676 Z m -3.3956519,0.7059 h 0.036671 v 0.22066 h -0.034607 l -0.0372,-0.0641 v -0.0491 c 0,-0.0389 0.014023,-0.0751 0.035137,-0.10749 z m 3.3956519,0 h 0.4072138 c 0.020876,0.0323 0.035055,0.0687 0.035655,0.10749 v 0.0491 l -0.03669,0.0641 H 7.5712676 Z m -3.1481342,1.81229 v 1.86811 c -0.026194,-0.0134 -0.05379,-0.0247 -0.079058,-0.0398 v -0.18707 c 0,-5.3e-4 0,-5.3e-4 0,-10e-4 0,-5.3e-4 0,-5.3e-4 0,-0.001 v -0.3514 c 0,-5.3e-4 0,-5.3e-4 0,-10e-4 0,-5.3e-4 0,-5.3e-4 0,-10e-4 v -1.05679 c 0,-5.3e-4 0,-5.3e-4 0,-10e-4 0,-5.3e-4 0,-5.3e-4 0,-0.001 v -0.18707 c 0.0254,-0.015 0.052758,-0.0264 0.079058,-0.0398 z m 2.9326417,0.22686 h 0.083201 v 1.41387 h -0.083201 z m -3.1780957,0.0672 h 0.034607 v 0.22066 h -0.036671 c -0.020902,-0.0323 -0.034634,-0.0686 -0.035137,-0.10749 v -0.0486 z m 3.3935882,0 h 0.4061751 l 0.03669,0.0641 v 0.0491 c -5.292e-4,0.0392 -0.014473,0.0756 -0.035655,0.10801 H 7.5712676 Z m -3.3992767,0.35295 h 0.040296 v 0.57361 h -0.036671 c -0.020902,-0.0322 -0.034555,-0.0686 -0.035137,-0.10697 v -0.35967 c 0,-0.0376 0.011377,-0.0749 0.031512,-0.10697 z m 3.3992767,5.3e-4 h 0.4113424 c 0.020241,0.0318 0.030848,0.0686 0.031523,0.10645 v 0.35967 c -5.292e-4,0.0385 -0.014499,0.0748 -0.035139,0.10697 H 7.5712676 Z m -3.3951492,0.70538 h 0.036169 v 0.22118 h -0.034607 l -0.0372,-0.0641 v -0.0465 c 0,-0.04 0.014023,-0.0775 0.035639,-0.11059 z m 3.3951492,0 h 0.4072138 c 0.020876,0.0323 0.035055,0.0687 0.035655,0.10749 v 0.0491 l -0.03669,0.0641 H 7.5712676 Z m -3.1481342,0.88574 v 1.86758 c -0.026194,-0.0133 -0.053684,-0.0242 -0.079058,-0.0393 v -0.18707 c 0,-5.3e-4 0,-5.3e-4 0,-10e-4 0,-5.3e-4 0,-5.3e-4 0,-0.001 v -0.3514 c 0,-5.3e-4 0,-5.3e-4 0,-10e-4 0,-5.3e-4 0,-5.3e-4 0,-0.001 v -0.70383 c 0,-5.3e-4 0,-5.3e-4 0,-10e-4 0,-5.3e-4 0,-5.3e-4 0,-0.001 v -0.35088 c 0,-5.3e-4 0,-5.3e-4 0,-0.001 0,-5.3e-4 0,-5.3e-4 0,-10e-4 v -0.18758 c 0.0254,-0.0151 0.052758,-0.0259 0.079058,-0.0393 z m 2.9326417,0.22634 h 0.083201 v 1.41438 h -0.083201 z m -3.1780957,0.0677 h 0.034607 v 0.22065 h -0.036169 c -0.020902,-0.0323 -0.035057,-0.0687 -0.035639,-0.10748 v -0.0491 z m 3.3935882,0 h 0.4061751 l 0.03669,0.0641 v 0.0491 c -5.292e-4,0.0387 -0.014764,0.0752 -0.035655,0.10748 H 7.5712676 Z m -3.3951492,0.35294 h 0.036169 v 0.57361 h -0.039767 c -0.021167,-0.0328 -0.032041,-0.0714 -0.032041,-0.11058 v -0.35295 c 0,-0.0399 0.014288,-0.077 0.035639,-0.11008 z m 3.3951492,0 h 0.4077298 c 0.020743,0.032 0.034541,0.0682 0.035139,0.10698 v 0.35915 c -5.292e-4,0.0388 -0.014182,0.0753 -0.035139,0.10748 H 7.5712676 Z m -3.3956519,0.7059 h 0.036671 v 0.22118 h -0.034607 l -0.0372,-0.0641 v -0.0496 c 0,-0.0386 0.014288,-0.0751 0.035137,-0.10749 z m 3.3956519,0 h 0.4113424 c 0.020241,0.0318 0.030853,0.0691 0.031523,0.10698 v 0.0496 l -0.03669,0.0641 H 7.5712676 Z" fill="#000000" stroke-width="0.2645613"></path></g></svg>