<svg height='100px' width='100px'  fill="#000000" xmlns="http://www.w3.org/2000/svg" xmlns:xlink="http://www.w3.org/1999/xlink" viewBox="0 0 48 48" version="1.1" x="0px" y="0px"><path d="M12,39.9999745 C12,39.9981047 20.6665959,39.9981132 37.9997876,40 C37.9995351,40 37.9996058,29.3333418 38,8.00002553 C38,8.00189534 29.3334041,8.00188683 12.0002124,8 C12.0004649,8 12.0003942,18.6666582 12,39.9999745 Z M8,8.00002553 C8,5.79087243 9.79203193,4 12.0002124,4 L37.9997876,4 C40.2090439,4 42,5.79642476 42,8.00002553 L42,39.9999745 C42,42.2091276 40.2079681,44 37.9997876,44 L12.0002124,44 C9.79095608,44 8,42.2035752 8,39.9999745 L8,8.00002553 Z" fill="#000000" fill-rule="nonzero"></path><polygon fill="#000000" fill-rule="nonzero" points="10.8264035 20 41.0000008 20 41.0000008 16 10.8264035 16"></polygon><polygon fill="#000000" fill-rule="nonzero" points="18 17.1542969 18 42.4830377 22 42.4830377 22 17.1542969"></polygon><polygon fill="#000000" fill-rule="nonzero" points="28 17.1542969 28 42.4830377 32 42.4830377 32 17.1542969"></polygon><polygon fill="#000000" fill-rule="nonzero" points="32 32 10 32 10 36 32 36"></polygon><polygon fill="#000000" fill-rule="nonzero" points="39 24 10 24 10 28 39 28"></polygon></svg>