<svg height='100px' width='100px'  fill="#000000" xmlns="http://www.w3.org/2000/svg" xmlns:xlink="http://www.w3.org/1999/xlink" xml:space="preserve" version="1.1" style="shape-rendering:geometricPrecision;text-rendering:geometricPrecision;image-rendering:optimizeQuality;" viewBox="0 0 846.66 846.66" x="0px" y="0px" fill-rule="evenodd" clip-rule="evenodd"><defs><style type="text/css">
   
    .fil0 {fill:#000000}
   
  </style></defs><g><path class="fil0" d="M465.15 176.43l0 199.79 -84.46 0 0 -199.79 -67.78 0 110.42 -156.14 110.43 156.14 -68.61 0zm36.69 33.35l50.57 -23.99 237.28 148.57 -91.39 67.37 103.63 75.41 -131.83 83 0 123.74 -246.77 142.49 -246.77 -142.49 0 -123.74 -105.66 -66.53 -26.17 -16.47 25.02 -18.21 78.61 -57.2 -91.39 -67.37 237.28 -148.57 50.57 25.2 0 53.35 -52.66 -27.84 -160.7 100.61 66.33 48.58 147.03 -87.76 0 48.85 -105.85 63.18 184.36 108.63 184.35 -108.63 -105.84 -63.18 0 -48.84 147.03 87.75 66.33 -48.58 -160.7 -100.61 -52.66 25.78 0 -52.5zm-99.55 555.97l0 -200.34 -110.11 67.53 -73.55 -46.31 0 73.08 183.66 106.04zm225.73 -179.12l-73.54 46.31 -110.11 -67.53 0 200.34 183.65 -106.04 0 -73.08zm-442.26 -160.28l-66.35 48.24 173.04 108.95 77.69 -47.63 -184.38 -109.56zm475.46 -0.27l-184.7 109.82 77.68 47.64 173.04 -108.95 -66.02 -48.51z"></path></g></svg>