<svg height='100px' width='100px'  fill="#000000" xmlns="http://www.w3.org/2000/svg" data-name="Layer 1" viewBox="0 0 512 512" x="0px" y="0px"><title>Location, Map Location, Location With circle</title><path d="M387.56,420.21c-24.39-6.64-56.9-11.29-92.56-13.31l93.35-182.1a148.15,148.15,0,0,0,16.52-64.27c.81-42.6-16.24-83.38-46.76-111.87a150.06,150.06,0,0,0-197.47-6c-52.32,43.27-68.39,117-39.07,179.24l87.12,185c-35.32,2-65.83,6.59-88.75,13.38-28.82,8.54-43.44,20-43.44,34.2,0,15.46,19,27.83,56.37,36.78,33,7.89,76.71,12.23,123.13,12.23s90.15-4.34,123.13-12.23c37.4-8.95,56.37-21.32,56.37-36.78C435.5,440.19,419.82,429,387.56,420.21ZM170.84,55a134.06,134.06,0,0,1,176.35,5.38c27.21,25.41,42.4,61.81,41.68,99.88a132.07,132.07,0,0,1-14.76,57.27L263.8,432.69a36,36,0,0,1-1.92,3.28c-5.4,8.1-6.93,9-10.66,9a11.2,11.2,0,0,1-10.69-7.81l-.15-.49L228.31,411l-.09-.2L136,215.07C109.84,159.42,124.15,93.58,170.84,55ZM375.41,475.71c-31.8,7.6-74.21,11.79-119.41,11.79s-87.61-4.19-119.41-11.79c-36.17-8.65-44.09-18.25-44.09-21.22,0-9.28,36.33-27.87,123.55-31.94l9.42,20A27.12,27.12,0,0,0,251.22,461c13.24,0,18.94-8.56,24-16.12A46,46,0,0,0,278,440l9-17.48c37.36,1.72,71.41,6.35,96.36,13.13C413,443.71,419.5,452,419.5,454.49,419.5,457.46,411.58,467.06,375.41,475.71Z"></path><path d="M255.91,245.81a88.46,88.46,0,1,0-88.49-88.46A88.58,88.58,0,0,0,255.91,245.81Zm0-160.92a72.46,72.46,0,1,1-72.49,72.46A72.55,72.55,0,0,1,255.91,84.89Z"></path></svg>