<svg height='100px' width='100px'  fill="#000000" xmlns="http://www.w3.org/2000/svg" data-name="Layer 1" viewBox="0 0 100 100" x="0px" y="0px"><title>88</title><path d="M54.76123,5.84174V21.57587h7.56818a.55.55,0,0,1,.43524.88611L50.43512,38.4245a.55.55,0,0,1-.87048,0L37.23517,22.462a.54994.54994,0,0,1,.43524-.88611h7.56818V5.84174A.84174.84174,0,0,1,46.08032,5h7.83917A.84174.84174,0,0,1,54.76123,5.84174ZM85.19128,39.95313l-21.307-10.76148-2.48981,3.22351,18.45978,9.32337L49.99988,56.81689,20.14551,41.73853l18.45971-9.32337-2.48974-3.22351-21.307,10.76148a2.00013,2.00013,0,0,0-1.09863,1.78515V75.68066a2.00013,2.00013,0,0,0,1.09863,1.78516l34.29,17.31934a1.99829,1.99829,0,0,0,1.80274,0l34.29-17.31934a2.00014,2.00014,0,0,0,1.09864-1.78516V41.73828A2.00014,2.00014,0,0,0,85.19128,39.95313Z"></path></svg>