<svg height='100px' width='100px'  fill="#000000" xmlns="http://www.w3.org/2000/svg" xmlns:xlink="http://www.w3.org/1999/xlink" viewBox="0 0 61 22" version="1.1" x="0px" y="0px"><title>Group 152</title><desc>Created with Sketch.</desc><g stroke="none" stroke-width="1" fill="none" fill-rule="evenodd"><g transform="translate(-120.000000, -2226.000000)" fill="#000000"><g transform="translate(120.000000, 2226.000000)"><path d="M8.018,17.003 L52.018,17.003 L52.018,5.003 L8.018,5.003 L8.018,17.003 Z M53.018,19.003 L7.018,19.003 C6.466,19.003 6.018,18.556 6.018,18.003 L6.018,4.003 C6.018,3.451 6.466,3.003 7.018,3.003 L53.018,3.003 C53.57,3.003 54.018,3.451 54.018,4.003 L54.018,18.003 C54.018,18.556 53.57,19.003 53.018,19.003 L53.018,19.003 Z"></path><path d="M2.0178,2.0035 L2.0178,20.0035 L6.0188,20.0035 L6.0178,2.0035 L2.0178,2.0035 Z M6.0178,22.0035 L2.0178,22.0035 C0.9148,22.0035 0.0178,21.1065 0.0178,20.0035 L0.0178,2.0035 C0.0178,0.9005 0.9148,0.0035 2.0178,0.0035 L6.0178,0.0035 C7.1208,0.0035 8.0178,0.9005 8.0178,2.0035 L8.0178,20.0035 C8.0178,21.1065 7.1208,22.0035 6.0178,22.0035 L6.0178,22.0035 Z"></path><path d="M54.0178,2.0035 L54.0178,20.0035 L58.0188,20.0035 L58.0178,2.0035 L54.0178,2.0035 Z M58.0178,22.0035 L54.0178,22.0035 C52.9148,22.0035 52.0178,21.1065 52.0178,20.0035 L52.0178,2.0035 C52.0178,0.9005 52.9148,0.0035 54.0178,0.0035 L58.0178,0.0035 C59.1208,0.0035 60.0178,0.9005 60.0178,2.0035 L60.0178,20.0035 C60.0178,21.1065 59.1208,22.0035 58.0178,22.0035 L58.0178,22.0035 Z"></path><path d="M11.0178,9.0035 L7.0178,9.0035 C6.4658,9.0035 6.0178,8.5565 6.0178,8.0035 C6.0178,7.4505 6.4658,7.0035 7.0178,7.0035 L11.0178,7.0035 C11.5698,7.0035 12.0178,7.4505 12.0178,8.0035 C12.0178,8.5565 11.5698,9.0035 11.0178,9.0035"></path><path d="M27.0178,9.0035 L19.0178,9.0035 C18.4658,9.0035 18.0178,8.5565 18.0178,8.0035 C18.0178,7.4505 18.4658,7.0035 19.0178,7.0035 L27.0178,7.0035 C27.5698,7.0035 28.0178,7.4505 28.0178,8.0035 C28.0178,8.5565 27.5698,9.0035 27.0178,9.0035"></path><path d="M16.0178,8.0035 C16.0178,7.4515 15.5698,7.0035 15.0178,7.0035 C14.4658,7.0035 14.0178,7.4515 14.0178,8.0035 C14.0178,8.5555 14.4658,9.0035 15.0178,9.0035 C15.5698,9.0035 16.0178,8.5555 16.0178,8.0035"></path><path d="M42.0178,9.0035 L32.0178,9.0035 C31.4658,9.0035 31.0178,8.5565 31.0178,8.0035 C31.0178,7.4505 31.4658,7.0035 32.0178,7.0035 L42.0178,7.0035 C42.5698,7.0035 43.0178,7.4505 43.0178,8.0035 C43.0178,8.5565 42.5698,9.0035 42.0178,9.0035"></path><path d="M53.0178,9.0035 L48.0178,9.0035 C47.4658,9.0035 47.0178,8.5565 47.0178,8.0035 C47.0178,7.4505 47.4658,7.0035 48.0178,7.0035 L53.0178,7.0035 C53.5698,7.0035 54.0178,7.4505 54.0178,8.0035 C54.0178,8.5565 53.5698,9.0035 53.0178,9.0035"></path></g></g></g></svg>