<svg height='100px' width='100px'  fill="#000000" xmlns:dc="http://purl.org/dc/elements/1.1/" xmlns:cc="http://creativecommons.org/ns#" xmlns:rdf="http://www.w3.org/1999/02/22-rdf-syntax-ns#" xmlns:svg="http://www.w3.org/2000/svg" xmlns="http://www.w3.org/2000/svg" xmlns:sodipodi="http://sodipodi.sourceforge.net/DTD/sodipodi-0.dtd" xmlns:inkscape="http://www.inkscape.org/namespaces/inkscape" version="1.1" x="0px" y="0px" viewBox="0 0 100 100"><g transform="translate(0,-952.36218)"><path style="text-indent:0;text-transform:none;direction:ltr;block-progression:tb;baseline-shift:baseline;color:#000000;enable-background:accumulate;" d="m 17.965306,981.25278 c -3.430987,0 -6.474889,2.5177 -8.5879412,6.3438 C 7.2643124,991.42268 6,996.61898 6,1002.3466 c 0,5.7276 1.2643124,10.9239 3.3773648,14.75 2.1130522,3.8261 5.1569542,6.3125 8.5879412,6.3125 l 7.173653,0 c 1.746913,0 3.377365,-0.6442 4.844436,-1.7813 l 41.813639,0 c 3.16036,0 5.9705,-2.3103 7.907605,-5.8124 1.936267,-3.502 3.089146,-8.2377 3.089146,-13.4688 0,-5.23112 -1.152879,-9.96682 -3.089146,-13.46882 -1.436071,-2.5958 -3.368987,-4.5129 -5.551579,-5.3437 l 7.881636,0 c 2.680274,0 5.167842,1.9489 7.042949,5.3437 1.875102,3.395 3.063172,8.1928 3.063172,13.53132 0,5.3385 -1.18807,10.1363 -3.063172,13.5313 -1.875107,3.3948 -4.362675,5.3437 -7.042949,5.3437 l -7.90761,0 c -0.738142,0.2713 -1.513993,0.4063 -2.304083,0.4063 l -4.738866,0 c 1.474614,1.1376 3.122657,1.7812 4.870412,1.7812 l 10.080147,0 c 3.430984,0 6.474886,-2.4864 8.587939,-6.3125 C 92.735688,1013.333 94,1008.1367 94,1002.4091 c 0,-5.72762 -1.264312,-10.92392 -3.377365,-14.75002 -2.113053,-3.8261 -5.156955,-6.3437 -8.587939,-6.3437 l -10.080147,0 c -1.715078,0 -3.33799,0.6425 -4.791656,1.75 l -37.179498,0 c -1.467071,-1.145 -3.097523,-1.8126 -4.844436,-1.8126 l -7.173653,0 z m 0,2.2188 7.173653,0 c 2.681113,0 5.168684,1.9489 7.043787,5.3438 1.875104,3.395 3.063172,8.1927 3.063172,13.53122 0,5.3385 -1.188068,10.1363 -3.063172,13.5312 -1.875103,3.3949 -4.362674,5.3438 -7.043787,5.3438 l -7.173653,0 c -2.680276,0 -5.167846,-1.9489 -7.04295,-5.3438 -1.8751033,-3.395 -3.0631716,-8.1927 -3.0631716,-13.5312 0,-5.33852 1.1880683,-10.13632 3.0631716,-13.53122 1.875104,-3.3949 4.362674,-5.3438 7.04295,-5.3438 z m 14.164656,1.7812 39.667072,0 c 2.411321,0 4.664295,1.7419 6.362615,4.8126 1.698316,3.0708 2.774954,7.4398 2.774954,12.28122 0,4.8414 -1.076638,9.1793 -2.774954,12.25 -1.69832,3.0707 -3.951294,4.8125 -6.362615,4.8125 l -39.640261,0 c 0.549628,-0.703 1.077472,-1.4659 1.544153,-2.3125 2.113891,-3.8261 3.377365,-9.0224 3.377365,-14.75 0,-5.72762 -1.263474,-10.92392 -3.377365,-14.75002 -0.474222,-0.8595 -1.011282,-1.63 -1.570964,-2.3438 z m -13.903248,0.8126 c -2.45657,0 -4.545325,2.0136 -5.968828,4.9687 -1.424342,2.9551 -2.2781086,6.9367 -2.2781086,11.31252 0,4.3758 0.8546046,8.326 2.2781086,11.2812 1.423503,2.9552 3.512258,5 5.968828,5 2.45657,0 4.546163,-2.0448 5.970504,-5 1.423504,-2.9552 2.251297,-6.9054 2.251297,-11.2812 0,-4.37582 -0.827793,-8.35742 -2.251297,-11.31252 -1.424341,-2.9551 -3.513934,-4.9687 -5.970504,-4.9687 z m 0,2.1874 c 1.5961,0 3.152822,1.3407 4.372728,3.875 1.221582,2.534 2.0167,6.1824 2.0167,10.21882 0,4.0364 -0.795118,7.6534 -2.0167,10.1875 -1.219906,2.5341 -2.776628,3.875 -4.372728,3.875 -1.5961,0 -3.151146,-1.3409 -4.37189,-3.875 -1.220745,-2.5341 -2.015862,-6.1511 -2.015862,-10.1875 0,-4.03642 0.795117,-7.68472 2.015862,-10.21882 1.220744,-2.5343 2.776628,-3.875 4.37189,-3.875 z" fill="#000000" fill-opacity="1" stroke="none" marker="none" visibility="visible" display="inline" overflow="visible"></path></g></svg>