<svg height='100px' width='100px'  fill="#000000" xmlns="http://www.w3.org/2000/svg" xmlns:xlink="http://www.w3.org/1999/xlink" xml:space="preserve" version="1.1" style="shape-rendering:geometricPrecision;text-rendering:geometricPrecision;image-rendering:optimizeQuality;" viewBox="0 0 348 351" x="0px" y="0px" fill-rule="evenodd" clip-rule="evenodd"><defs><style type="text/css">
   
    .fil0 {fill:#000000;fill-rule:nonzero}
   
  </style></defs><g><path class="fil0" d="M132 12l-116 62 34 39 116 -61 -34 -40zm172 109l42 49 -41 22 0 91 -131 68 -130 -69 0 -90 -42 -22 42 -49 -44 -50 134 -71 40 46 40 -46 134 71 -44 50zm-9 76l-80 42 -36 -41 0 139 116 -61 0 -79zm-121 -18l115 -60 -110 -58 0 38 0 10 0 45 -5 0 -5 0 0 -45 0 -10 0 -38 -109 58 114 60zm43 48l114 -60 -35 -40 -114 60 35 40zm116 -153l-117 -62 -34 40 116 61 35 -39zm-315 93l113 60 35 -40 -113 -60 -35 40zm151 31l-35 41 -80 -42 0 79 115 61 0 -139z"></path></g></svg>