<svg height='100px' width='100px'  fill="#000000" xmlns="http://www.w3.org/2000/svg" viewBox="0 0 512 512" x="0px" y="0px"><g><path d="M341.65686,258.34326l-56-56-24-24a8,8,0,0,0-11.31348,0l-32,32a7.99915,7.99915,0,0,0,0,11.31348L236.68665,240l-50.34327,50.34326a7.99915,7.99915,0,0,0,0,11.31348l56,56a7.99945,7.99945,0,0,0,11.31348,0l88-88A7.99915,7.99915,0,0,0,341.65686,258.34326ZM235.3136,216l20.68652-20.68652L268.68665,208l-20.68653,20.68652Zm12.68652,124.68652L203.3136,296l50.34326-50.34326,26.34326-26.34326L324.68665,264Z"></path><path d="M317.65686,18.34326a8,8,0,0,0-11.31348,0l-80,80A7.99881,7.99881,0,0,0,224.00012,104v16h-16a7.99977,7.99977,0,0,0-8,8v16h-16a7.99977,7.99977,0,0,0-8,8v16h-16a7.99977,7.99977,0,0,0-8,8v16h-16a7.99977,7.99977,0,0,0-8,8v16h-16a7.99977,7.99977,0,0,0-8,8v16h-16a7.99977,7.99977,0,0,0-8,8v16h-16a7.99977,7.99977,0,0,0-8,8v16h-16a7.99877,7.99877,0,0,0-5.65674,2.34326l-16,16a7.99915,7.99915,0,0,0,0,11.31348l176,176a7.99945,7.99945,0,0,0,11.31348,0l288-288a7.99915,7.99915,0,0,0,0-11.31348ZM458.68665,182l-14.68653,14.68652L435.3136,188l14.68652-14.68652Zm-40-40-14.68653,14.68652L395.3136,148l14.68652-14.68652Zm-40-40-14.68653,14.68652L355.3136,108l14.68652-14.68652Zm-40-40L324.00012,76.68652,315.3136,68l14.68652-14.68652ZM200.00012,476.68652,191.3136,468l30.34326-30.34326-11.31348-11.31348-30.34326,30.34326L67.3136,344l26.34326-26.34326L82.34338,306.34326,56.00012,332.68652,35.3136,312l8-8H64.00012a7.99977,7.99977,0,0,0,8-8V280h16a7.99977,7.99977,0,0,0,8-8V256h16a7.99977,7.99977,0,0,0,8-8V232h16a7.99977,7.99977,0,0,0,8-8V208h16a7.99977,7.99977,0,0,0,8-8V184h16a7.99977,7.99977,0,0,0,8-8V160h16a7.99977,7.99977,0,0,0,8-8V136h16a7.99977,7.99977,0,0,0,8-8V107.31348l72-72L318.68665,42,298.34338,62.34326a7.99915,7.99915,0,0,0,0,11.31348l20,20a7.99945,7.99945,0,0,0,11.31348,0l20.34326-20.34326L358.68665,82l-20.34327,20.34326a7.99915,7.99915,0,0,0,0,11.31348l20,20a7.99945,7.99945,0,0,0,11.31348,0l20.34326-20.34326L398.68665,122l-20.34327,20.34326a7.99915,7.99915,0,0,0,0,11.31348l20,20a7.99945,7.99945,0,0,0,11.31348,0l20.34326-20.34326L438.68665,162l-20.34327,20.34326a7.99915,7.99915,0,0,0,0,11.31348l20,20a7.99945,7.99945,0,0,0,11.31348,0l20.34326-20.34326L476.68665,200Z"></path><rect x="100.68641" y="280.00016" width="22.62742" height="15.99967" transform="translate(-170.84268 163.54929) rotate(-45)"></rect><rect x="132.68641" y="248.00016" width="22.62742" height="15.99967" transform="translate(-138.84268 176.80413) rotate(-45)"></rect><rect x="164.68641" y="216.00016" width="22.62742" height="15.99967" transform="translate(-106.84268 190.05896) rotate(-45)"></rect><rect x="196.68641" y="184.00016" width="22.62742" height="15.99967" transform="translate(-74.84268 203.31379) rotate(-45)"></rect><rect x="228.68641" y="152.00016" width="22.62742" height="15.99967" transform="translate(-42.84268 216.56863) rotate(-45)"></rect><rect x="260.68641" y="120.00016" width="22.62742" height="15.99967" transform="translate(-10.84268 229.82346) rotate(-45)"></rect><rect x="228.68641" y="400.00016" width="22.62742" height="15.99967" transform="translate(-218.20516 289.20615) rotate(-45)"></rect><rect x="260.68641" y="368.00016" width="22.62742" height="15.99967" transform="translate(-186.20516 302.46098) rotate(-45)"></rect><rect x="292.68641" y="336.00016" width="22.62742" height="15.99967" transform="translate(-154.20516 315.71582) rotate(-45)"></rect><rect x="324.68641" y="304.00016" width="22.62742" height="15.99967" transform="translate(-122.20516 328.97065) rotate(-45)"></rect><rect x="356.68641" y="272.00016" width="22.62742" height="15.99967" transform="translate(-90.20516 342.22548) rotate(-45)"></rect><rect x="388.68641" y="240.00016" width="22.62742" height="15.99967" transform="translate(-58.20516 355.48032) rotate(-45)"></rect><path d="M282.34338,157.65674l24,24a7.99945,7.99945,0,0,0,11.31348,0l24-24a7.99915,7.99915,0,0,0,0-11.31348l-24-24a8,8,0,0,0-11.31348,0l-24,24A7.99915,7.99915,0,0,0,282.34338,157.65674Zm29.65674-18.34326L324.68665,152l-12.68653,12.68652L299.3136,152Z"></path><rect x="352.00029" y="172.68629" width="15.99967" height="22.62742" transform="translate(-24.66605 308.45088) rotate(-45)"></rect><rect x="328.00029" y="196.68629" width="15.99967" height="22.62742" transform="translate(-48.66605 298.50975) rotate(-45)"></rect><rect x="153.37271" y="264.00016" width="45.25483" height="15.99967" transform="translate(-140.7838 204.11784) rotate(-45)"></rect><path d="M149.65686,298.34326a8,8,0,0,0-11.31348,0l-40,40a7.99915,7.99915,0,0,0,0,11.31348l72,72a7.99945,7.99945,0,0,0,11.31348,0l40-40a7.99915,7.99915,0,0,0,0-11.31348ZM176.00012,404.686,115.31409,344l28.686-28.686L204.68616,376Z"></path></g></svg>