<svg height='100px' width='100px'  fill="#000000" xmlns="http://www.w3.org/2000/svg" xmlns:xlink="http://www.w3.org/1999/xlink" version="1.1" x="0px" y="0px" viewBox="0 0 100 100" style="enable-background:new 0 0 100 100;" xml:space="preserve"><path d="M30.5,38.6c0,1.6,11.2,4,20.4,4c6.8,0,13.6-1.3,19.6-4v4.9v13v4.9c-3-1.6-11.2-4-20.4-4c-6.8,0-12.6,1.3-19.6,4v-4.9v-13v-5   M72.5,34.5c0,3.8-15.1,6.1-21.6,6.1c-13,0-22.4-5.1-22.4-5.1v8v13v8c8-3.8,15.1-5.1,21.6-5.1c13,0,22.4,5.1,22.4,5.1v-8v-13v-8  V34.5z"></path><polygon points="94.1,55.3 92.7,53.9 96.6,50 92.8,46.1 94.2,44.7 99.4,50 "></polygon><rect x="80.5" y="49.5" width="16" height="2"></rect><polygon points="5.8,55.3 0.6,50 5.9,44.7 7.3,46.1 3.4,50 7.2,53.9 "></polygon><rect x="2.5" y="49.5" width="16" height="2"></rect></svg>