<svg height='100px' width='100px'  fill="#000000" xmlns="http://www.w3.org/2000/svg" xmlns:xlink="http://www.w3.org/1999/xlink" version="1.1" x="0px" y="0px" viewBox="0 0 100 100" enable-background="new 0 0 100 100" xml:space="preserve"><path d="M20.737,37.067L9.701,47.877L3.818,72.99h18.48l2.992-23.714l4.777-6.545L20.737,37.067z M12.2,56.232  c0.071-0.752,0.19-1.492,0.306-2.232l0.193-1.106c0.064-0.368,0.143-0.733,0.213-1.101c0.138-0.736,0.313-1.462,0.47-2.192  c0.165-0.728,0.345-1.453,0.527-2.177l0.028-0.109l0.067-0.084l0.703-0.875c0.235-0.291,0.464-0.586,0.706-0.873  c0.484-0.57,0.954-1.152,1.453-1.711c0.25-0.281,0.492-0.565,0.746-0.842l0.76-0.829c0.261-0.271,0.516-0.546,0.781-0.814  c0.264-0.268,0.529-0.535,0.807-0.793c-0.186,0.331-0.381,0.652-0.579,0.973c-0.196,0.321-0.403,0.634-0.604,0.952l-0.625,0.935  c-0.209,0.313-0.428,0.615-0.642,0.923c-0.424,0.619-0.878,1.213-1.317,1.82c-0.221,0.302-0.453,0.594-0.68,0.893l-0.469,0.61  l3.282,5.79l-3.669-4.681c-0.102,0.381-0.205,0.761-0.313,1.139c-0.213,0.716-0.407,1.437-0.639,2.149  c-0.114,0.355-0.221,0.713-0.341,1.068l-0.36,1.063C12.75,54.832,12.498,55.539,12.2,56.232z M19.439,59.686  c-0.178,0.199-0.361,0.393-0.545,0.586c-0.186,0.191-0.364,0.391-0.554,0.574c-0.376,0.377-0.749,0.758-1.134,1.123  c-0.346,0.332-0.697,0.654-1.051,0.979c-0.365,1.313-0.773,2.611-1.225,3.9l-0.366,0.994c-0.12,0.332-0.259,0.658-0.387,0.988  c-0.129,0.328-0.276,0.652-0.413,0.979c-0.146,0.324-0.293,0.648-0.457,0.969c0.036-0.357,0.09-0.709,0.143-1.061  c0.062-0.35,0.113-0.701,0.185-1.047s0.132-0.695,0.212-1.041l0.232-1.033c0.33-1.371,0.704-2.73,1.127-4.076l0.047-0.15l0.107-0.09  c0.404-0.344,0.813-0.684,1.227-1.014c0.413-0.336,0.838-0.656,1.259-0.98c0.21-0.164,0.429-0.316,0.644-0.475  s0.43-0.316,0.65-0.465c0.438-0.305,0.883-0.604,1.346-0.881C20.151,58.889,19.799,59.291,19.439,59.686z"></path><path d="M66.141,43.417L49.963,27.009l-11.215,5.608L26.301,49.677L23.357,72.99h12.985l-2.258-10.029l3.299-7.369  c-0.542-0.371-1.081-0.752-1.61-1.152c0.785,0.184,1.561,0.393,2.326,0.617l0.577,0.166c0.194,0.053,0.356,0.17,0.536,0.25  l0.793,0.373l3.163-2.271l0.259-0.185l0.283,0.141l8.626,4.314l0.744-0.6c0.167-0.135,0.338-0.266,0.495-0.412  c0.163-0.143,0.369-0.23,0.554-0.346c0.379-0.215,0.755-0.434,1.14-0.643c0.382-0.213,0.771-0.416,1.159-0.619  c-0.281,0.336-0.563,0.674-0.853,1c-0.053,0.061-0.107,0.119-0.16,0.178l4.092,8.057l-1.722,5.018l0.604,3.512h11.392L66.141,43.417  z M48.346,34.894c0.188-0.832,0.458-1.643,0.729-2.238c0.135-0.297,0.264-0.542,0.362-0.71c0.099-0.169,0.166-0.264,0.166-0.264  s0.021,0.115,0.037,0.309c0.018,0.195,0.03,0.47,0.026,0.797c-0.01,0.652-0.109,1.502-0.295,2.334s-0.457,1.645-0.727,2.239  c-0.137,0.297-0.265,0.541-0.364,0.71c-0.098,0.169-0.166,0.263-0.166,0.263s-0.021-0.113-0.038-0.308s-0.03-0.471-0.026-0.797  C48.059,36.576,48.159,35.726,48.346,34.894z M39.225,43.127c-0.4,0.365-0.816,0.708-1.227,1.06c-0.42,0.338-0.834,0.687-1.26,1.015  c-0.384,0.294-0.763,0.595-1.15,0.883c-0.244,0.701-0.484,1.405-0.748,2.098c-0.141,0.371-0.279,0.742-0.428,1.108l-0.446,1.101  c-0.147,0.369-0.313,0.73-0.468,1.093c-0.154,0.365-0.326,0.724-0.492,1.086c-0.337,0.719-0.686,1.434-1.083,2.131  c0.143-0.789,0.333-1.563,0.535-2.33c0.104-0.383,0.202-0.769,0.318-1.148c0.114-0.379,0.219-0.762,0.341-1.139l0.363-1.131  c0.122-0.376,0.253-0.75,0.382-1.125c0.26-0.748,0.544-1.486,0.823-2.227l0.057-0.151l0.124-0.087  c0.44-0.31,0.896-0.599,1.343-0.898c0.449-0.298,0.912-0.577,1.367-0.866c0.465-0.276,0.924-0.561,1.398-0.822  c0.469-0.269,0.947-0.525,1.438-0.766C40.027,42.398,39.631,42.769,39.225,43.127z M42.244,37.712  c-0.558-0.657-1.049-1.37-1.365-1.949c-0.158-0.291-0.277-0.542-0.354-0.724c-0.078-0.182-0.113-0.293-0.113-0.293  s0.105,0.053,0.271,0.159c0.168,0.104,0.396,0.263,0.657,0.465c0.521,0.406,1.146,1.005,1.704,1.662  c0.558,0.656,1.05,1.368,1.365,1.948c0.158,0.289,0.277,0.542,0.354,0.724c0.077,0.181,0.112,0.293,0.112,0.293  s-0.104-0.052-0.271-0.158c-0.167-0.105-0.397-0.263-0.657-0.465C43.426,38.969,42.802,38.369,42.244,37.712z M51.79,54.701  c-0.104-0.445-0.2-0.893-0.289-1.341c-0.085-0.448-0.172-0.896-0.249-1.345c-0.073-0.449-0.152-0.898-0.221-1.348l-0.182-1.227  c-0.322-0.461-0.64-0.924-0.96-1.386c-0.338-0.485-0.655-0.984-0.983-1.475c-0.33-0.49-0.648-0.988-0.963-1.488  c-0.18-0.29-0.365-0.578-0.547-0.866c-0.184,0.275-0.369,0.55-0.56,0.823c-0.341,0.481-0.671,0.968-1.021,1.444  c-0.347,0.478-0.694,0.954-1.057,1.422c-0.356,0.471-0.728,0.934-1.108,1.39c0.247-0.541,0.504-1.075,0.774-1.601  c0.266-0.529,0.545-1.048,0.825-1.568c0.276-0.521,0.574-1.03,0.859-1.546c0.289-0.513,0.595-1.017,0.891-1.526l0.375-0.643  l0.449,0.637c0.342,0.483,0.656,0.983,0.986,1.474c0.328,0.491,0.65,0.985,0.963,1.487c0.314,0.501,0.638,0.994,0.942,1.501  c0.305,0.506,0.614,1.01,0.915,1.519l0.063,0.108l0.004,0.087l0.064,1.362c0.019,0.455,0.026,0.911,0.041,1.366  c0.011,0.456,0.011,0.911,0.014,1.368C51.815,53.787,51.809,54.244,51.79,54.701z M61.97,52.785c-0.108-0.321-0.2-0.645-0.301-0.967  c-0.103-0.322-0.193-0.646-0.283-0.971c-0.188-0.646-0.36-1.298-0.524-1.949c-0.15-0.571-0.287-1.144-0.421-1.719  c-0.622-0.309-1.235-0.638-1.854-0.954c-0.346-0.176-0.683-0.371-1.024-0.556c-0.34-0.189-0.684-0.369-1.019-0.566l-1.01-0.583  l-0.998-0.605c-0.66-0.417-1.32-0.831-1.957-1.292c0.748,0.24,1.475,0.524,2.2,0.81l1.08,0.444l1.069,0.467  c0.357,0.152,0.706,0.323,1.06,0.484c0.352,0.166,0.708,0.321,1.055,0.496c0.694,0.346,1.398,0.676,2.086,1.035l0.223,0.117  l0.052,0.236c0.143,0.658,0.278,1.315,0.398,1.978c0.127,0.661,0.247,1.322,0.351,1.988c0.055,0.333,0.109,0.667,0.153,1  c0.046,0.334,0.1,0.666,0.137,1.002c0.083,0.67,0.161,1.344,0.202,2.021C62.393,54.068,62.179,53.427,61.97,52.785z"></path><path d="M93.498,66.797l-5.2-6.031l-1.892,5.191L87.5,70.02l-1.511-4.008l-0.02-0.051l0.019-0.074l1.576-6.117l-6.456-18.448  l-6.244-8.473l-9.475,3.967l-1.44,2.881l3.19,3.237l0.021,0.177l3.679,29.88h25.342L93.498,66.797z M75.466,39.577  c0.238,0.209,0.463,0.43,0.694,0.645c0.232,0.215,0.461,0.433,0.685,0.655c0.453,0.44,0.899,0.885,1.336,1.34  c0.218,0.227,0.442,0.449,0.655,0.68l0.644,0.692l0.087,0.095l0.033,0.138c0.181,0.741,0.347,1.485,0.499,2.232  c0.08,0.373,0.149,0.748,0.221,1.123c0.068,0.375,0.145,0.749,0.207,1.125l0.187,1.13c0.059,0.377,0.108,0.757,0.163,1.135  c0.051,0.379,0.093,0.76,0.138,1.141c0.038,0.383,0.076,0.766,0.098,1.151c-0.146-0.358-0.276-0.72-0.407-1.081  c-0.122-0.363-0.248-0.726-0.365-1.09c-0.113-0.365-0.231-0.729-0.341-1.095l-0.315-1.101c-0.104-0.368-0.197-0.737-0.296-1.105  c-0.098-0.369-0.196-0.738-0.283-1.109c-0.174-0.698-0.332-1.398-0.48-2.102l-0.533-0.604c-0.209-0.235-0.409-0.479-0.612-0.72  c-0.411-0.478-0.811-0.966-1.204-1.46c-0.199-0.244-0.394-0.493-0.585-0.745c-0.19-0.251-0.388-0.498-0.572-0.756  c-0.376-0.509-0.748-1.023-1.096-1.559C74.521,38.732,74.996,39.153,75.466,39.577z M80.271,62.701l-5.466-5.168  c-0.089,0.494-0.181,0.986-0.276,1.48c-0.169,0.809-0.325,1.621-0.511,2.428c-0.178,0.807-0.373,1.611-0.578,2.416  c-0.216,0.801-0.425,1.604-0.688,2.398c0.022-0.836,0.098-1.662,0.167-2.49c0.08-0.824,0.169-1.648,0.274-2.469  c0.099-0.822,0.228-1.639,0.342-2.457c0.122-0.77,0.246-1.537,0.386-2.303c-0.259-0.676-0.525-1.346-0.77-2.025  c-0.262-0.727-0.528-1.451-0.771-2.186c-0.122-0.366-0.251-0.73-0.365-1.1c-0.115-0.37-0.235-0.737-0.347-1.108  c-0.221-0.743-0.441-1.485-0.621-2.244c0.387,0.677,0.735,1.368,1.084,2.061c0.173,0.347,0.336,0.697,0.505,1.045  c0.172,0.348,0.326,0.7,0.488,1.052c0.327,0.7,0.629,1.41,0.936,2.12c0.295,0.672,0.563,1.359,0.843,2.037l5.771,6.217l0.061,0.064  l0.008,0.074l0.807,7.475L80.271,62.701z"></path><polygon points="41.988,70.598 40.238,67.797 36.051,66.91 37.419,72.99 41.988,72.99 "></polygon><polygon points="56.706,69.393 57.967,65.715 53.06,68.061 51.222,70.424 52.097,72.99 57.323,72.99 "></polygon></svg>